<svg width="258" height="53" fill="none" xmlns="http://www.w3.org/2000/svg"><path d="M21.259 31.431c7.243 0 13.18 5.384 13.163 13.11H8.095c-.013-7.722 5.922-13.11 13.164-13.11z" fill="#FF7009"/><path d="M32.117 13.16c-1.665 0-2.85.721-3.95 2.289l-3.151 4.51V7.084h-7.522v12.873l-3.152-4.51c-1.094-1.567-2.279-2.288-3.949-2.288-2.508 0-4.18 1.845-4.187 4.12 0 1.948.915 3.216 2.856 4.461l12.187 7.82 12.188-7.82c1.94-1.245 2.864-2.513 2.856-4.46.002-2.276-1.668-4.12-4.176-4.12z" fill="#0AAD0A"/><path d="M49.817 15.276c-2.8 0-4.579-1.726-4.579-4.384 0-2.657 1.822-4.337 4.58-4.337 2.8 0 4.578 1.725 4.578 4.382 0 2.658-1.822 4.34-4.579 4.34zm4.09 1.686V44.54h-8.18V16.958l8.18.004zM66.042 16.958v5.137h.4c1.558-3.631 4.27-5.669 8.626-5.669 5.913 0 9.557 3.499 9.557 10.273V44.54h-8.18V28.204c0-3.807-1.644-5.534-4.89-5.534-3.384 0-5.289 1.86-5.289 5.755v16.116h-8.18V16.958h7.956zM95.026 35.819c.312 2.392 1.779 3.631 4.402 3.631 2.888 0 4.09-1.106 4.09-2.657 0-1.498-.752-2.392-3.246-2.656l-3.556-.399c-6.358-.708-8.98-3.541-8.98-8.24 0-5.225 3.948-9.077 11.602-9.077 7.469 0 10.981 3.543 11.425 8.9h-7.557c-.177-2.082-1.422-3.276-4.045-3.276-2.712 0-3.912 1.106-3.912 2.655 0 1.328.845 2.08 2.934 2.347l4 .537c6.269.841 8.936 3.371 8.936 8.28 0 5.401-4.224 9.209-11.736 9.209-7.78 0-11.693-3.72-12.223-9.254h7.866zM115.838 36.44V23.422h-3.512v-5.4c4.535-.312 6.312-1.994 6.491-6.157h5.201v5.092h6.183v6.465h-6.183v11.643c0 2.746 1.157 3.587 3.423 3.587a10.724 10.724 0 0 0 2.046-.221v6.154a15.59 15.59 0 0 1-4.047.487c-6.709 0-9.602-3.012-9.602-8.634zM148.602 39.937h-.348c-1.29 3.23-3.734 5.136-7.958 5.136-5.514 0-8.49-3.409-8.49-7.793 0-4.074 2.311-6.907 8.578-8.053l4.713-.843c2.401-.442 3.245-1.283 3.245-2.7 0-1.903-1.333-3.01-3.911-3.01-2.845 0-4.269 1.283-4.536 3.496h-7.787c.845-5.933 5.202-9.738 12.626-9.738 8.001 0 11.781 4.03 11.781 10.227v17.887h-7.913v-4.609zm-.267-8.103c-.711.532-1.645.936-2.934 1.24l-2.444.576c-2.133.487-2.934 1.461-2.934 2.967 0 1.948 1.379 3.054 3.69 3.054 2.757 0 4.624-1.498 4.624-5.047l-.002-2.79zM174.295 16.426c8.625 0 13.426 4.694 14.049 12.22h-8.086c-.399-3.408-2.257-5.579-6.001-5.579-4.18 0-6.535 2.613-6.535 7.529 0 5.223 2.533 7.836 6.623 7.836 3.468 0 5.642-2.038 6.046-5.712h8.135c-.752 7.704-5.955 12.36-14.448 12.36-9.334 0-14.626-5.58-14.626-14.213-.005-8.729 5.863-14.44 14.843-14.44zM207.34 39.937h-.355c-1.289 3.23-3.733 5.135-7.957 5.135-5.513 0-8.492-3.408-8.492-7.792 0-4.074 2.313-6.907 8.581-8.053l4.712-.843c2.402-.442 3.246-1.283 3.246-2.7 0-1.904-1.335-3.01-3.913-3.01-2.846 0-4.267 1.282-4.534 3.496h-7.78c.845-5.933 5.202-9.738 12.626-9.738 8.001 0 11.781 4.03 11.781 10.227v17.887h-7.915v-4.609zm-.265-8.103c-.711.531-1.646.936-2.936 1.24l-2.444.576c-2.135.487-2.934 1.46-2.934 2.967 0 1.947 1.379 3.054 3.69 3.054 2.757 0 4.624-1.498 4.624-5.047v-2.79zM226.944 16.958v6.686h.401c1.378-5.618 3.385-7.173 6.046-7.173a5.101 5.101 0 0 1 1.645.266v7.66a15.919 15.919 0 0 0-2.223-.178c-3.868 0-5.423 1.55-5.423 5.888v14.434h-8.18V16.958h7.734zM237.497 17.27c2.134-.843 3.022-2.57 3.156-5.404h5.024v5.092h6.179v6.465h-6.179v11.643c0 2.746 1.155 3.587 3.423 3.587.686-.008 1.37-.082 2.044-.221v6.154c-1.32.339-2.682.502-4.045.487-6.714 0-9.602-3.012-9.602-8.634V17.27z" fill="#FAF1E5"/></svg>