<svg width="52" height="51" fill="none" xmlns="http://www.w3.org/2000/svg">
  <path d="M9.207 0h33.585C47.883 0 52 4.141 52 9.262v32.476C52 46.858 47.883 51 42.792 51H9.207C4.117 51 0 46.859 0 41.738V9.262C0 4.142 4.117 0 9.207 0z" fill="#00005B"/>
  <path d="M21.01 30.518h-8.03l-1.643 5.12a.375.375 0 01-.406.307H6.794c-.243 0-.304-.123-.243-.388l6.996-20.114c.061-.225.122-.388.223-.673.082-.45.122-.939.122-1.408-.02-.102.061-.224.183-.245h5.638c.182 0 .263.061.284.184l7.889 22.297c.06.245 0 .347-.223.347H23.14a.325.325 0 01-.345-.245l-1.784-5.182zm-6.773-4.345h5.496c-.122-.449-.304-1-.507-1.57-.203-.592-.385-1.225-.588-1.877-.223-.674-.406-1.326-.629-2-.223-.673-.405-1.305-.588-1.938-.183-.612-.325-1.183-.487-1.693h-.04c-.203.939-.426 1.877-.73 2.815-.325 1.04-.65 2.142-.994 3.224a36.358 36.358 0 01-.933 3.04zm16.103 9.445V22.664c0-.387 0-.856-.02-1.326-.02-.51-.02-.958-.041-1.387-.02-.428-.04-.857-.06-1.101a.24.24 0 01.04-.225.363.363 0 01.223-.061h3.488c.122 0 .244.02.345.061.081.041.142.123.182.245.041.122.102.306.142.49.061.244.102.49.122.714a7.231 7.231 0 012.292-1.347 8.177 8.177 0 012.616-.428c.69 0 1.38.102 2.028.326a5.18 5.18 0 013.286 3.223c.344.898.486 2.06.486 3.489v10.302c0 .224-.08.306-.284.306l-4.076.04c-.183.021-.325-.081-.345-.265v-9.853c-.02-.653-.142-1.305-.405-1.897-.203-.428-.507-.836-.893-1.081a2.525 2.525 0 00-1.48-.388c-.568 0-1.136.082-1.643.306-.487.204-.913.49-1.298.837V35.68c0 .224-.081.306-.284.306h-4.117a.273.273 0 01-.304-.245c-.02-.082-.02-.102 0-.123z" fill="#99F"/>
</svg>
