<svg width="40" height="46" viewBox="0 0 40 46" fill="none" xmlns="http://www.w3.org/2000/svg">
<path d="M38.2805 35.848C37.5785 37.4551 36.7476 38.9344 35.7848 40.2945C34.4725 42.1486 33.398 43.4321 32.57 44.1448C31.2863 45.3146 29.911 45.9137 28.4382 45.9478C27.3809 45.9478 26.1058 45.6496 24.6216 45.0448C23.1325 44.4429 21.764 44.1448 20.5127 44.1448C19.2004 44.1448 17.793 44.4429 16.2876 45.0448C14.7798 45.6496 13.5652 45.9648 12.6366 45.9961C11.2243 46.0557 9.81655 45.4395 8.4114 44.1448C7.51456 43.3696 6.39279 42.0407 5.04896 40.1582C3.60714 38.1479 2.42176 35.8167 1.49311 33.159C0.498564 30.2884 0 27.5086 0 24.8174C0 21.7346 0.672202 19.0758 2.01861 16.8477C3.07677 15.058 4.48449 13.6463 6.24637 12.6099C8.00825 11.5735 9.91196 11.0454 11.9621 11.0116C13.0839 11.0116 14.5549 11.3554 16.383 12.0312C18.2059 12.7093 19.3764 13.0531 19.8895 13.0531C20.2732 13.0531 21.5735 12.651 23.7778 11.8495C25.8623 11.1061 27.6216 10.7983 29.0628 10.9196C32.9682 11.2319 35.9023 12.7575 37.8536 15.5061C34.3608 17.6033 32.633 20.5407 32.6674 24.3088C32.6989 27.244 33.7734 29.6864 35.8851 31.6257C36.8421 32.5258 37.9109 33.2215 39.1 33.7156C38.8421 34.4566 38.5699 35.1665 38.2805 35.848ZM29.3236 0.920262C29.3236 3.22079 28.4754 5.36878 26.7849 7.35694C24.7448 9.72048 22.2772 11.0862 19.6013 10.8707C19.5672 10.5947 19.5474 10.3043 19.5474 9.99902C19.5474 7.79052 20.5176 5.42699 22.2405 3.49448C23.1007 2.51602 24.1947 1.70244 25.5213 1.05343C26.8451 0.414105 28.0972 0.0605457 29.2749 0C29.3092 0.307544 29.3236 0.615108 29.3236 0.920232V0.920262Z" fill="black"/>
</svg>
