<svg width="87" height="45" fill="none" xmlns="http://www.w3.org/2000/svg"><path d="M38.626 11.61h.188c.566.045.913.467 1.186.947.636 1.135 1.528 3.781 1.873 4.813.258.77.503 1.556.747 2.326.216.655.518 1.513.56 2.166.014.233-.06.538-.234.726-.203.217-.755.39-1.074.418-.798.056-1.188-.352-1.505-1.064-.764-1.702-1.624-5.22-1.896-6.73-.086-.495-.342-2.108-.282-2.834.03-.247.089-.74.437-.769zM34.968 7.285s.175-.566.35-1.001c.292-.798.92-1.958 1.414-2.712.16-.232.335-.493.335-.493s-.363.144-.566.245c-.48.246-1.076.941-1.352 1.362-.466.696-.89 1.726-.37 2.396.073.087.189.203.189.203zm1.704 2.43c-.073.131-.103.422-.161.625-.03.116-.102.276-.16.334-.204.26-.407.318-.712.187a1.827 1.827 0 0 1-.896-1.049c-.057-.189-.086-.421-.172-.581-.144-.262-.506-.466-.723-.7-.275-.262-.564-.77-.693-1.12-.374-1.09-.081-2.266.444-3.281.524-1.03 1.339-1.987 2.298-2.754.9-.724 2.324-1.446 3.556-1.37.406.015 1 .191 1.347.439.073.058.145.117.203.131.058.015.188-.014.304-.014.377-.042.972.09 1.232.207.521.249.855.525 1.114 1.005.505.96.24 2.253-.24 3.123-.816 1.494-1.718 2.639-3.026 3.638-.567.434-1.51.954-2.265 1.098-.232.043-.479.056-.71.1-.117.028-.566.041-.61.012-.043-.029-.13-.044-.13-.03zm1.935-2.478a6.538 6.538 0 0 0 2.47-1.577c.697-.695 1.643-1.927 1.225-2.945a.958.958 0 0 0-.752-.569c-.42-.059-.595.028-1.016.303-.305.202-.45.304-.712.579-.785.811-1.79 2.363-2.242 3.495-.103.26-.205.565-.292.769-.059.13-.088.246-.074.26.029.103 1.016-.185 1.393-.315zM36.86 15.92c.23.567.386 1.715.415 1.86.042.349.01 1.191-.004 1.293-.06.479-.147.944-.265 1.408-.176.755-.745 2.046-1.138 2.64-1.456 2.205-4.143 3.984-6.61 5.023-1.67.693-3.672 1.225-5.601 1.409-.551.042-1.102.084-1.668.111 0 0 .115.378.158.654a3.9 3.9 0 0 1-.002.582c-.058.304-.233.507-.538.666-.363.188-.77.318-1.16.273-.653-.089-1.014-.57-1.288-1.165-.23-.48-.562-1.324-.562-1.324l-.913-.162a22.098 22.098 0 0 1-3.637-1.012c-.318-.117-1.68-.73-1.984-.891-.868-.453-1.665-.92-2.359-1.62-.55-.538-.809-1.09-.734-1.846.119-1.06 1.282-2.175 2.095-2.841.61-.493 2.543-1.81 3.4-2.185.406-.173 1.015-.476 1.059-.52.015-.014.03-.029.03-.043.014-.03-.23-.989-.33-1.338-.101-.334-.472-2.644-.529-3.138-.028-.262-.112-1.308.005-1.627.073-.204.305-.261.537-.202 1.202.337 2.139 2.446 2.528 3.55.244.67.546 1.687.546 1.687s1.16-.36 1.886-.547c.697-.172 1.509-.286 2.263-.371.972-.114 2.886-.24 4.075-.004.97.192 1.984.688 2.46 1.387.449.64.549 1.134.358 1.89-.205.841-.83 1.595-1.614 1.854-.232.087-1.146.215-1.48.083-.13-.058-.173-.204-.114-.334.014-.044.363-.377.581-.58.102-.1.19-.202.262-.318.146-.232.277-.479.19-.712-.115-.29-.477-.393-.81-.423-1.58-.164-4.54.177-5.932.478-.551.114-1.306.316-1.306.316l2.3 7.501s.667-.056 1.175-.127c.29-.043 1.537-.272 1.857-.358 2.466-.633 5.122-1.613 7.055-3.308.858-.738 1.585-1.579 2.052-2.55.612-1.292.674-2.831.142-4.27-.59-1.571-2.268-3.16-3.513-4.063-3.27-2.391-8.08-3.755-12.11-4.216-4.117-.462-8.003-.312-11.95.65-1.015.245-3.206.921-4.223 1.543-.145.087-.29.188-.436.26-.101.058-.276.189-.305.247-.015.029-.044.072-.044.072s.073.015.16.03c.13.014.638-.086.899-.114.247-.029.507.03.652.176.13.131.188.247.115.421-.16.378-1.133.593-1.568.65-.45.057-1.03.07-1.232-.28-.245-.407-.157-.9-.04-1.38.235-.943.773-1.537 1.66-2.072 1.263-.767 2.903-1.518 4.18-1.92 2.888-.937 5.789-1.205 8.863-1.154 1.754.034 4.102.244 5.87.554 1.261.221 3.304.706 4.463 1.072.377.117 2.564.937 2.912 1.083.825.365 1.622.76 2.404 1.183 1.39.759 3.198 2.013 4.21 3.134.246.263.449.539.767.845.1.102.606.757.722.96.116.204.274.495.289.495.028.131.346.727.403.974zm-20.69 4.94s-1.089.404-1.83.693c-.943.375-2.685 1.213-3.644 1.893-.29.203-.857.651-.814 1 .042.349.317.567.636.772.188.116 1.158.642 1.418.759 1.116.497 3.26 1.127 4.767 1.305.522.06 1.348.12 1.348.12s-.675-2.151-1.264-4.288c-.316-1.134-.617-2.253-.617-2.253zM49.583 12.901a.36.36 0 0 1 .117-.014c.928-.128 1.841-.213 2.61-.109.695.104 1.159.337 1.664.861.767.802 1.184 2.095 1.007 3.228-.133.842-.7 1.668-1.296 2.19-.61.55-1.264.912-2.048 1.229-1.364.548-2.96.69-4.395.438-.855-.147-1.941-.528-2.635-1.198-.507-.495-.722-1.265-.46-1.948.395-1.088 1.746-1.68 2.82-1.938.812-.202 2.335-.357 3.19-.311.232.015 1.101.104 1.29.192.13.073.231.19.216.335-.016.58-1.25 1.231-1.598 1.404-.959.434-1.596.214-2.871.08-.32-.03-.725-.046-1.03.012-.537.1-1.117.418-1.061 1.014.028.305.448.48.752.524.696.09 1.218.047 1.828-.125 1.799-.475 3.715-1.341 4.88-2.79.16-.204.29-.465.219-.726-.015-.03-.145-.306-.232-.306-.014 0-.029.014-.043.014-.03 0-.116-.073-.188-.116-.145-.102-.624-.162-.71-.176-1.102-.134-2.973.18-3.93.367-1.002.2-2.583.501-2.975.558-.391.057-.84.1-1.203.04-.377-.059-.797-.292-.999-.641-.36-.626-.373-1.512-.154-2.15.57-1.684 2.705-2.855 4.36-3.562 1.597-.679 4.266-1.427 6.136-1.03.29.06.449.147.477.438.042.537-.25.958-.67 1.232-.436.29-1.408.636-1.844.78-1.93.663-4.31 1.281-6.023 2.322-.131.087-.363.217-.422.333-.204.406.652.249.855.235.058 0 .073 0 .116-.014l4.25-.671M57.775 18.489c-.87-.06-1.417-1.283-1.633-1.922-.72-2.065-1.002-5.145-.85-7.309.045-.624.076-1.612.714-1.741.436-.086.841.162 1.188.424.94.758 1.867 1.53 2.792 2.317.869.758 1.708 1.516 2.518 2.2.1.088.188.16.29.205.13.058.217.03.246-.058.014-.043-.33-1.09-.417-1.294-.144-.32-.245-.596-.36-.872-.346-.814-.952-1.935-1.4-2.677-.49-.843-1.054-1.702-1.501-2.517a4.957 4.957 0 0 1-.375-.8c-.115-.392.074-.682.524-.652.884.06 2.447 1.488 2.923 2.013.16.174.882 1.091 1.055 1.353a13.33 13.33 0 0 1 1.486 2.851c.389 1.033.762 2.603.599 3.764-.06.436-.25 1.045-.453 1.379-.32.537-1.105 1.1-1.815.925-.768-.191-2.388-1.764-2.663-2.027-.94-.917-2.646-2.767-2.877-2.956-.058-.058-.13-.073-.203-.088-.072 0-.058.145-.044.233.07.653.831 3.604.846 3.691.128.495.444 1.716.472 2.355.013.421.012.755-.293 1.03-.218.189-.435.188-.769.173zM68.614 15.205c-.145-.073-.275-.146-.42-.219-.014-.014-.42-.364-.52-.48a8.05 8.05 0 0 1-.203-.248c-.448-.597-.635-1.251-.69-2.007-.057-.711.06-.77.15-1.786v-.16c-.03-.13-.462-.916-.548-1.192-.13-.407.103-.799.626-1 .043-.015.087-.03.116-.044.204-.116.22-.566.25-.93.03-.507.09-1.292.09-1.292s-.726.042-1.131-.003c-.45-.045-.812-.147-1.116-.468-.347-.378-.273-.654.148-.929.16-.101 1.408-.737 1.8-.91.494-.217.973-.433 1.452-.635.42-.173 2.337-.967 2.96-1.125.973-.245 1.712-.025 2.493.631.42.35.78.816.403 1.221-.582.623-2.846 1.3-3.252 1.415-.653.202-1.582.446-1.582.446l-.019 1.67s1.626-.475 2.54-.734c.217-.057.45-.115.58-.129.493-.027.768.278.926.787.201.596.157.901-.293 1.118-.232.115-3.018.921-3.396 1.066l-.464.202s-.045.58-.076 1.162c-.016.61-.018 1.205-.018 1.205s.146-.028.261-.072c.204-.057.392-.144.538-.216.812-.39 2.018-.939 3.02-1.401.536-.245.797-.361 1.203-.084.347.248.564.495.694.873.115.364-.09.697-.366 1.06-.858 1.145-2.471 2.593-3.836 3.142-.624.26-.798.23-1.407.243-.116 0-.566-.074-.566-.089-.014.03-.26-.059-.347-.088M80.86 12.884s-.046.726-.062 1.307c-.032.988.02 3.603.09 4.402.098 1.191.307 4.3.292 4.387-.014.102-.044.131-.13.232-.219.232-.335.203-.697.13-.464-.104-.884-.22-1.318-.527-.84-.627-1.125-2.168-1.254-3.083-.455-3.197-.422-4.678-.108-8.077 0-.058 0-.072-.029-.101-.578-.67-1.054-1.558-1.27-2.313-.69-2.4.029-5.172 1.036-7.522.073-.174.583-1.306.931-1.392.349-.086.522.306.564.655.142 1.163-.311 2.512-.59 3.601-.307 1.22-.309 1.684-.326 2.73 0 .16.085.9.113.988.087.247.23.567.23.567s.585-1.64.994-2.67c.22-.566.394-.943.584-1.35.204-.42 1.005-1.928 1.253-2.349.51-.856.728-1.218 1.382-1.827.509-.478 1.017-.709 1.713-.489 1.086.352 1.851 1.501 2.255 2.505.475 1.207.616 2.66.366 3.88-.294 1.436-.92 2.597-1.895 3.742-1.003 1.159-2.282 2.129-3.704 2.488-.203.029-.42.086-.42.086zM84.062 2.45c-.553.812-1.123 2.306-1.4 3.06-.351 1.017-.63 2.134-.95 3.049-.074.203-.25.9-.22.914.028.03.376-.071.71-.245.726-.346 1.598-1.172 2.035-1.766.64-.914.977-2.002.936-3.15-.013-.523-.242-1.57-.72-1.934-.086-.058-.289-.088-.391.072zM30.915 30.009c.769-.23 1.841-.01 2.405.485l5.237 4.721c.188.16.275.117.203-.116l-1.625-5.146c-.072-.233-.201-.61-.186-.858.03-.552.438-1.059 1.047-1.246l2.075-.634c.77-.23 1.566.135 1.782.833l3.522 11.296c.215.698-.236 1.452-1.005 1.683l-3.019.906c-.26.072-.623.013-.811-.162l-5.815-5.1c-.188-.16-.275-.116-.203.116l1.667 5.321c.216.698-.236 1.452-1.005 1.683l-2.075.633c-.769.23-1.566-.135-1.781-.833l-3.522-11.296c-.216-.698.236-1.452 1.005-1.682l2.104-.604zM51.61 36.047l5.104-5.535c.378-.42.249-.856-.302-.988l-7.419-1.792c-.55-.133-.87.186-.698.724l2.315 7.37c.173.539.622.642 1 .221zm8.051-7.008c1.265 4.07-1.052 8.393-5.173 9.645-4.135 1.253-8.508-1.04-9.773-5.11-1.265-4.07 1.052-8.393 5.173-9.646 4.121-1.252 8.509 1.04 9.773 5.11zM71.256 19.54l.45 5.434c.041.494-.118.537-.35.101l-2.971-5.557c-.346-.64-1.215-.99-1.927-.76l-.783.244c-.725.216-1.25 1-1.194 1.726l.563 6.32c.043.494-.117.537-.348.1l-3.015-5.556c-.347-.64-1.216-.991-1.941-.76l-1.988.619c-.726.23-1.06.767-.758 1.218l7.236 10.695c.404.612 1.332.92 2.057.703l1.596-.49c.48-.143.843-.665.8-1.145l-.548-6.305c-.042-.494.103-.537.334-.101l2.885 5.571c.23.436.796.67 1.275.512l1.697-.518c.726-.23 1.308-1 1.31-1.74l.048-12.608c.002-.741-.576-1.15-1.302-.933l-2.003.619c-.435.13-.798.463-1.003.869-.233.435-.162 1.248-.12 1.742" fill="#214478"/></svg>