<svg width="176" height="90" fill="none" xmlns="http://www.w3.org/2000/svg"><g clip-path="url(#a)" fill="#fff"><path d="M78.116 23.479h.38c1.144.092 1.846.946 2.4 1.917 1.284 2.295 3.088 7.646 3.786 9.734.523 1.558 1.018 3.146 1.513 4.704.435 1.323 1.047 3.058 1.131 4.38.029.47-.12 1.087-.473 1.468-.411.44-1.526.79-2.172.846-1.613.113-2.403-.711-3.044-2.153-1.545-3.44-3.285-10.555-3.834-13.611-.174-1-.692-4.262-.571-5.73.06-.5.18-1.498.884-1.555zM70.72 14.734s.355-1.145.71-2.025c.59-1.614 1.857-3.961 2.858-5.486.324-.47.677-.997.677-.997s-.733.292-1.145.496c-.968.497-2.174 1.904-2.734 2.754-.942 1.408-1.798 3.491-.746 4.846.146.176.38.412.38.412zm3.447 4.915c-.147.264-.207.852-.326 1.262-.06.235-.206.558-.325.675-.41.528-.822.644-1.438.378-.848-.413-1.52-1.238-1.812-2.12-.116-.382-.173-.852-.348-1.176-.292-.53-1.024-.942-1.463-1.414-.555-.53-1.14-1.56-1.401-2.266-.757-2.205-.164-4.583.897-6.636 1.062-2.083 2.709-4.018 4.648-5.57 1.822-1.463 4.7-2.924 7.192-2.77.822.03 2.023.386 2.725.888.146.118.293.236.41.265.117.03.381-.028.616-.027.762-.086 1.964.181 2.491.418 1.054.502 1.728 1.062 2.253 2.033 1.02 1.941.486 4.554-.486 6.314-1.65 3.022-3.475 5.338-6.12 7.357-1.146.879-3.054 1.931-4.58 2.22-.47.088-.968.116-1.437.203-.235.058-1.144.085-1.232.026-.088-.06-.264-.09-.264-.06zm3.913-5.013a13.221 13.221 0 0 0 4.994-3.188c1.412-1.407 3.324-3.899 2.48-5.957a1.937 1.937 0 0 0-1.522-1.15c-.85-.12-1.203.055-2.055.611-.617.41-.91.615-1.44 1.172-1.588 1.64-3.62 4.778-4.534 7.067-.207.528-.414 1.145-.591 1.556-.118.264-.177.498-.149.528.059.206 2.054-.376 2.817-.639zM74.544 32.194c.466 1.147.782 3.469.84 3.763.086.705.023 2.409-.007 2.614-.12.97-.298 1.91-.536 2.849-.355 1.526-1.506 4.138-2.3 5.34-2.945 4.457-8.38 8.056-13.37 10.158-3.377 1.4-7.426 2.477-11.327 2.848-1.115.085-2.23.17-3.373.226 0 0 .233.765.32 1.323.028.235.026.94-.004 1.175-.119.617-.472 1.027-1.089 1.348-.734.38-1.556.643-2.347.552-1.32-.18-2.05-1.151-2.604-2.357-.466-.97-1.136-2.676-1.136-2.676s-.997-.18-1.846-.328a44.707 44.707 0 0 1-7.355-2.047c-.645-.237-3.398-1.478-4.013-1.803-1.757-.916-3.367-1.86-4.77-3.274-1.112-1.09-1.637-2.208-1.486-3.735.24-2.144 2.592-4.4 4.238-5.746 1.234-.996 5.141-3.658 6.873-4.418.822-.35 2.056-.964 2.144-1.051.03-.03.059-.059.059-.088.03-.06-.464-2-.667-2.705-.204-.676-.954-5.349-1.068-6.348-.058-.53-.228-2.645.008-3.29.148-.411.618-.527 1.086-.409 2.433.683 4.327 4.947 5.113 7.182.495 1.353 1.105 3.41 1.105 3.41s2.348-.727 3.815-1.105c1.409-.349 3.051-.58 4.577-.752 1.965-.23 5.836-.483 8.24-.007 1.963.387 4.013 1.392 4.977 2.804.906 1.295 1.108 2.295.723 3.821-.415 1.703-1.68 3.227-3.265 3.752-.47.175-2.318.434-2.991.168-.264-.118-.351-.412-.233-.676.03-.088.735-.762 1.176-1.172.206-.205.382-.41.53-.645.294-.47.56-.968.384-1.439-.233-.588-.965-.795-1.64-.856-3.195-.332-9.179.357-11.995.967a60.37 60.37 0 0 0-2.641.639l4.65 15.17s1.35-.113 2.377-.257c.587-.087 3.11-.55 3.755-.724 4.989-1.28 10.36-3.263 14.27-6.69 1.734-1.493 3.204-3.193 4.148-5.158 1.239-2.612 1.364-5.725.287-8.637-1.194-3.175-4.587-6.387-7.104-8.215-6.614-4.836-16.342-7.594-24.491-8.526-8.326-.934-16.186-.632-24.167 1.315-2.054.494-6.485 1.863-8.541 3.12-.294.176-.588.38-.882.527-.205.117-.558.38-.617.497-.03.06-.088.147-.088.147s.147.03.322.06c.264.03 1.291-.173 1.82-.23.498-.058 1.025.061 1.318.356.263.265.38.5.232.852-.325.763-2.29 1.199-3.17 1.314-.91.115-2.083.141-2.491-.565-.497-.824-.318-1.822-.081-2.791.474-1.908 1.563-3.11 3.354-4.192 2.556-1.55 5.873-3.069 8.456-3.884 5.84-1.894 11.707-2.437 17.923-2.332 3.548.069 8.297.493 11.873 1.12 2.55.447 6.682 1.427 9.026 2.168.762.237 5.185 1.894 5.888 2.19 1.67.739 3.28 1.536 4.862 2.393 2.81 1.535 6.47 4.071 8.516 6.339.497.53.906 1.089 1.55 1.708.204.206 1.227 1.53 1.46 1.943.234.411.555 1 .584 1 .058.264.7 1.47.816 1.97zM32.7 42.187s-2.201.817-3.698 1.4c-1.908.759-5.432 2.453-7.37 3.829-.588.41-1.734 1.317-1.648 2.023.086.705.642 1.147 1.286 1.56.38.236 2.342 1.299 2.87 1.535 2.255 1.005 6.591 2.28 9.64 2.64a86.36 86.36 0 0 0 2.726.243s-1.366-4.351-2.557-8.673c-.639-2.293-1.249-4.557-1.249-4.557zM100.277 26.095c.118-.03.147-.03.235-.03 1.878-.259 3.726-.43 5.279-.22 1.407.21 2.344.682 3.367 1.742 1.55 1.62 2.393 4.237 2.035 6.527-.268 1.704-1.416 3.375-2.621 4.43-1.234 1.112-2.556 1.843-4.141 2.485-2.76 1.11-5.986 1.394-8.888.887-1.73-.298-3.927-1.068-5.33-2.423-1.024-1.002-1.46-2.56-.928-3.94.798-2.2 3.528-3.397 5.7-3.92 1.643-.407 4.723-.722 6.452-.63.469.031 2.228.212 2.609.39.264.147.468.383.438.676-.032 1.175-2.529 2.49-3.233 2.841-1.938.876-3.227.432-5.807.16-.645-.06-1.466-.091-2.082.025-1.086.202-2.26.846-2.146 2.05.057.617.906.972 1.522 1.062 1.407.18 2.463.095 3.695-.255 3.639-.96 7.514-2.711 9.869-5.643.323-.41.588-.938.443-1.467-.029-.06-.291-.618-.467-.618-.03 0-.059.029-.088.029-.059 0-.235-.148-.381-.236-.293-.207-1.26-.327-1.436-.357-2.228-.27-6.012.366-7.948.743-2.025.406-5.223 1.014-6.015 1.13-.792.115-1.701.2-2.434.08-.762-.119-1.611-.591-2.02-1.297-.73-1.265-.754-3.057-.311-4.349 1.153-3.404 5.47-5.772 8.816-7.203 3.23-1.372 8.63-2.885 12.41-2.081.586.119.908.296.966.883.085 1.088-.504 1.938-1.356 2.494-.881.585-2.848 1.285-3.728 1.576-3.904 1.34-8.717 2.591-12.183 4.697-.264.176-.734.439-.852.673-.413.822 1.319.503 1.73.475.117 0 .146 0 .234-.029l8.595-1.357M116.844 37.39c-1.759-.122-2.866-2.592-3.303-3.886-1.455-4.176-2.025-10.405-1.719-14.781.091-1.263.154-3.26 1.445-3.522.881-.174 1.701.328 2.403.859a281.835 281.835 0 0 1 5.647 4.686c1.755 1.532 3.452 3.064 5.09 4.45.205.176.381.324.586.412.263.119.44.06.499-.116.029-.088-.669-2.205-.844-2.617-.291-.647-.495-1.206-.728-1.764-.699-1.647-1.925-3.913-2.83-5.413-.992-1.707-2.131-3.443-3.036-5.09-.292-.53-.584-1.09-.758-1.618-.233-.794.15-1.38 1.059-1.32 1.788.123 4.948 3.01 5.913 4.07.321.354 1.783 2.208 2.133 2.738a26.994 26.994 0 0 1 3.005 5.766c.786 2.088 1.54 5.263 1.211 7.612-.12.881-.505 2.114-.917 2.788-.647 1.086-2.234 2.227-3.67 1.87-1.553-.385-4.829-3.567-5.385-4.097-1.901-1.856-5.351-5.596-5.819-5.98-.117-.117-.264-.147-.41-.177-.146 0-.118.294-.09.47.144 1.322 1.682 7.29 1.711 7.466.261 1 .9 3.47.954 4.762.028.852.025 1.528-.591 2.084-.441.38-.881.38-1.556.349zM138.767 30.752c-.292-.148-.556-.296-.849-.443-.029-.03-.848-.737-1.053-.973-.176-.206-.292-.353-.409-.5-.906-1.207-1.284-2.53-1.397-4.058-.113-1.44.122-1.557.303-3.612l.001-.324c-.058-.264-.934-1.853-1.108-2.412-.262-.823.21-1.615 1.266-2.023.088-.03.176-.058.235-.088.412-.234.443-1.144.504-1.878.061-1.029.183-2.615.183-2.615s-1.467.085-2.287-.006c-.91-.09-1.642-.298-2.256-.946-.702-.766-.553-1.323.298-1.88.324-.204 2.849-1.49 3.641-1.84.999-.438 1.968-.876 2.937-1.285.85-.35 4.726-1.955 5.988-2.275 1.965-.494 3.46-.05 5.04 1.277.849.707 1.579 1.65.814 2.47-1.176 1.26-5.754 2.628-6.576 2.86-1.321.409-3.199.903-3.199.903l-.038 3.378s3.287-.96 5.135-1.484c.44-.117.91-.233 1.174-.261.998-.057 1.553.562 1.873 1.59.407 1.207.317 1.823-.593 2.261-.47.234-6.104 1.864-6.868 2.156l-.939.409s-.091 1.174-.153 2.35c-.032 1.233-.036 2.438-.036 2.438s.294-.058.528-.146a6.404 6.404 0 0 0 1.087-.438c1.644-.788 4.081-1.898 6.107-2.833 1.086-.496 1.614-.73 2.434-.17.702.502 1.141 1.002 1.403 1.767.232.735-.18 1.41-.739 2.142-1.736 2.316-4.999 5.245-7.759 6.354-1.262.526-1.614.466-2.846.492-.234 0-1.143-.15-1.143-.18-.029.06-.527-.118-.703-.177M163.529 26.06s-.092 1.468-.124 2.643c-.064 1.997.039 7.285.181 8.902.198 2.409.622 8.697.592 8.873-.03.206-.089.264-.265.47-.441.468-.676.409-1.409.26-.937-.208-1.787-.446-2.665-1.065-1.698-1.268-2.275-4.383-2.535-6.235-.92-6.465-.853-9.461-.22-16.334 0-.117 0-.147-.057-.206-1.17-1.354-2.133-3.149-2.568-4.678-1.395-4.85.057-10.458 2.093-15.211.148-.352 1.18-2.641 1.884-2.815.705-.175 1.055.62 1.14 1.325.287 2.35-.629 5.08-1.192 7.282-.622 2.466-.625 3.406-.66 5.521-.001.323.171 1.822.229 1.998.175.5.466 1.147.466 1.147s1.182-3.316 2.009-5.4a40.025 40.025 0 0 1 1.18-2.729c.413-.85 2.034-3.901 2.535-4.752 1.03-1.73 1.473-2.463 2.795-3.694 1.029-.966 2.057-1.434 3.464-.99 2.197.712 3.744 3.037 4.56 5.066.962 2.44 1.247 5.38.742 7.846-.594 2.906-1.862 5.253-3.833 7.568-2.029 2.345-4.616 4.306-7.491 5.033-.41.058-.851.174-.851.174zm6.479-21.105c-1.119 1.642-2.271 4.664-2.832 6.19-.709 2.055-1.273 4.315-1.923 6.165-.147.41-.503 1.82-.444 1.849.058.059.762-.145 1.438-.496 1.468-.7 3.232-2.37 4.115-3.572a10.396 10.396 0 0 0 1.894-6.37c-.027-1.058-.491-3.174-1.456-3.911-.176-.118-.586-.178-.792.145zM62.52 60.691c1.556-.466 3.725-.019 4.866.983l10.59 9.547c.38.324.556.236.41-.234l-3.284-10.409c-.146-.47-.408-1.235-.377-1.734.06-1.116.885-2.142 2.118-2.52l4.196-1.282c1.556-.466 3.166.273 3.603 1.684l7.123 22.846c.436 1.41-.477 2.936-2.032 3.402l-6.105 1.834c-.528.146-1.261.026-1.641-.328l-11.76-10.313c-.381-.324-.557-.237-.412.233l3.373 10.761c.436 1.412-.478 2.937-2.033 3.403l-4.197 1.282c-1.555.465-3.166-.274-3.602-1.685l-7.123-22.845c-.436-1.411.477-2.937 2.033-3.402l4.255-1.223zM104.375 72.903l10.322-11.194c.765-.85.503-1.732-.61-2l-15.005-3.624c-1.113-.267-1.76.377-1.411 1.465l4.681 14.907c.349 1.088 1.257 1.296 2.023.446zm16.283-14.175c2.558 8.233-2.128 16.974-10.462 19.508-8.365 2.533-17.208-2.103-19.767-10.335-2.558-8.233 2.128-16.974 10.463-19.508 8.335-2.533 17.207 2.103 19.766 10.335zM144.11 39.52l.909 10.99c.085.999-.238 1.086-.705.204l-6.01-11.239c-.7-1.294-2.458-2.004-3.896-1.538l-1.585.495c-1.467.437-2.527 2.02-2.414 3.49l1.139 12.782c.085.999-.237 1.086-.704.204l-6.099-11.239c-.701-1.294-2.458-2.004-3.925-1.538l-4.021 1.252c-1.467.466-2.145 1.552-1.532 2.464l14.634 21.631c.817 1.237 2.693 1.858 4.16 1.422l3.228-.99c.969-.292 1.704-1.347 1.619-2.317l-1.109-12.752c-.085-1 .208-1.087.675-.204l5.834 11.267c.467.882 1.609 1.356 2.578 1.035l3.434-1.048c1.467-.466 2.644-2.02 2.648-3.518l.098-25.5c.004-1.498-1.166-2.323-2.634-1.887l-4.05 1.253c-.88.262-1.615.935-2.028 1.757-.472.88-.329 2.525-.244 3.524"/></g><defs><clipPath id="a"><path fill="#fff" d="M0 0h176v90H0z"/></clipPath></defs></svg>