<svg width="201" height="46" fill="none" xmlns="http://www.w3.org/2000/svg"><path d="M25.153 0c-2.644 0-6.016 3.285-6.016 9.004v2.789c-1.746-1.087-3.783-1.678-6.33-1.678C5.603 10.139 0 15.669 0 22.522c0 6.854 5.36 12.384 12.758 12.384 3.566 0 6.38-1.252 8.223-2.978 1.212 1.631 2.716 2.529 4.026 2.529 1.019 0 1.528-.544 1.528-1.749V1.631C26.535.544 26.025 0 25.153 0zM13.316 28.407c-3.565 0-5.821-2.529-5.821-5.908 0-3.38 2.256-5.909 5.821-5.909 3.566 0 5.821 2.53 5.821 5.909 0 3.403-2.255 5.908-5.82 5.908zm40.53-17.37h-2.498c-1.795 0-2.45.709-2.45 2.387v8.91c0 3.591-1.891 5.718-4.948 5.718-3.153 0-4.754-2.032-4.754-5.813v-8.815c0-1.75-.727-2.387-2.45-2.387h-2.498c-1.722 0-2.45.638-2.45 2.387v9.004c0 7.704 3.979 12.478 10.964 12.478 3.105 0 5.87-1.182 7.81-3.238 1.165 1.797 2.765 2.789 4.196 2.789.873 0 1.528-.544 1.528-1.749V13.424c0-1.75-.727-2.387-2.45-2.387zm19.696 23.87c7.495 0 13.073-5.531 13.073-12.385 0-7.019-5.602-12.383-13.073-12.383-7.447 0-13.074 5.53-13.074 12.383 0 7.02 5.627 12.384 13.074 12.384zm0-6.5c-3.371 0-5.603-2.529-5.603-5.908 0-3.38 2.207-5.909 5.603-5.909 3.42 0 5.603 2.53 5.603 5.909-.025 3.403-2.183 5.908-5.603 5.908zm19.598 5.601h2.498c1.698 0 2.45-.638 2.45-2.387V1.749C98.088.544 97.578 0 96.56 0c-2.498 0-5.87 3.285-5.87 9.004v22.617c0 1.749.728 2.387 2.45 2.387zm14.383-26.256c2.256 0 4.172-1.702 4.172-3.876S109.779 0 107.523 0c-2.304 0-4.171 1.702-4.171 3.876s1.843 3.876 4.171 3.876zm-1.261 26.256h2.498c1.795 0 2.45-.709 2.45-2.387V13.424c0-1.678-.655-2.387-2.45-2.387h-2.498c-1.795 0-2.45.709-2.45 2.387V31.62c0 1.654.655 2.387 2.45 2.387zm24.401-23.87c-3.056 0-5.967 1.206-8.004 3.333-1.213-1.89-2.814-2.883-4.197-2.883-1.018 0-1.528.543-1.528 1.748v19.285c0 1.749.728 2.387 2.45 2.387h2.498c1.795 0 2.45-.709 2.45-2.387v-8.933c0-3.569 2.135-5.72 5.263-5.72 3.178 0 4.852 2.08 4.852 5.814v8.839c0 1.749.727 2.387 2.449 2.387h2.499c1.722 0 2.449-.638 2.449-2.387v-9.193c0-7.516-3.929-12.29-11.181-12.29zm35.679 16.757c2.183-1.584 3.517-3.97 3.517-6.712 0-1.135-.243-2.151-.703-3.143 2.45-1.182 3.371-3.333 3.371-5.365 0-2.033-.825-2.624-2.037-2.08-4.342 1.938-4.948 2.032-7.81 1.536-1.795-.307-3.105-.543-4.852-.543-3.225 0-5.869.992-8.101 2.788-2.086 1.702-3.153 4.183-3.153 6.807 0 2.741 1.286 5.128 3.517 6.712-2.91 1.488-4.948 4.632-4.948 8.366 0 6.168 5.094 10.445 13.025 10.445 8.32 0 13.074-4.726 13.074-10.895.048-3.733-1.989-6.522-4.9-7.916zm-8.125-10.446c2.692 0 4.341 1.347 4.341 4.064 0 2.151-1.843 4.065-4.341 4.065s-4.293-1.89-4.293-4.064c0-2.553 1.698-4.065 4.293-4.065zm0 23.326c-3.226 0-5.628-2.033-5.628-4.633 0-2.883 2.256-4.632 5.628-4.632 3.42 0 5.675 1.75 5.675 4.632 0 2.647-2.352 4.633-5.675 4.633zm28.888-4.869c7.495 0 13.073-5.53 13.073-12.384 0-7.019-5.603-12.383-13.073-12.383-7.447 0-13.074 5.53-13.074 12.383 0 7.02 5.627 12.384 13.074 12.384zm0-6.499c-3.372 0-5.603-2.529-5.603-5.908 0-3.38 2.207-5.909 5.603-5.909 3.42 0 5.603 2.53 5.603 5.909 0 3.403-2.183 5.908-5.603 5.908z" fill="#fff"/></svg>