<svg width="36" height="52" fill="none" xmlns="http://www.w3.org/2000/svg">
  <path d="M18 26a8.667 8.667 0 1117.334 0A8.667 8.667 0 0118 26z" fill="#1ABCFE"/>
  <path d="M.667 43.334a8.667 8.667 0 018.667-8.667H18v8.667a8.667 8.667 0 11-17.333 0z" fill="#0ACF83"/>
  <path d="M18 0v17.334h8.667a8.667 8.667 0 100-17.334H18z" fill="#FF7262"/>
  <path d="M.667 8.667a8.667 8.667 0 008.667 8.667H18V0H9.334A8.667 8.667 0 00.667 8.667z" fill="#F24E1E"/>
  <path d="M.667 26a8.667 8.667 0 008.667 8.667H18V17.333H9.334A8.667 8.667 0 00.667 26z" fill="#A259FF"/>
</svg>
