<svg width="125" height="45" fill="none" xmlns="http://www.w3.org/2000/svg">
  <path fill="#fff" d="M-1414-47H250v237h-1664z"/>
  <path d="M8.933 22.725c0-2.862 2.39-5.226 5.284-5.226 2.893 0 5.284 2.364 5.284 5.226s-2.39 5.226-5.284 5.226c-3.02.124-5.284-2.24-5.284-5.226zM14.217 8.79c7.8 0 14.216 6.22 14.216 14.06 0 5.847-3.523 10.824-8.68 12.94a2.391 2.391 0 01-1.007.248c-1.007 0-2.013-.622-2.39-1.617-.63-1.369 0-2.862 1.383-3.484 3.145-1.369 5.41-4.48 5.41-8.088 0-4.852-4.026-8.834-8.932-8.834-4.907 0-8.933 3.982-8.933 8.834 0 3.609 2.265 6.72 5.41 8.088 1.006.498 1.635 1.369 1.635 2.488 0 1.493-1.132 2.613-2.642 2.613-.377 0-.629-.124-1.006-.249C3.523 33.674 0 28.697 0 22.85 0 15.135 6.416 8.79 14.217 8.79z" fill="#22292F"/>
  <path d="M36.024 33.102l3.383-2.748c1.755 1.998 3.134 2.748 5.64 2.748 2.632 0 4.512-1.624 4.512-3.872v-1.248c-1.128 1.248-3.133 1.998-5.39 1.998-5.137 0-9.022-3.747-9.022-8.742 0-4.87 3.76-8.617 8.772-8.617 2.381 0 4.386.749 5.514 1.998v-1.624h4.512V29.23c0 4.746-3.76 7.993-9.023 7.993-3.885-.125-7.018-1.624-8.898-4.121zm13.284-10.865v-1.998c0-1.874-2.13-3.622-4.512-3.622-3.007 0-5.013 1.873-5.013 4.496 0 2.872 1.88 4.62 4.888 4.62 2.506.125 4.637-1.498 4.637-3.496zm7.018-1c0-4.995 3.885-8.741 9.4-8.741 5.513 0 9.398 3.871 9.398 8.742 0 4.87-3.885 8.742-9.399 8.742-5.514 0-9.399-3.872-9.399-8.742zm14.161 0c0-2.747-1.88-4.745-4.762-4.745-2.882 0-4.762 1.998-4.762 4.746 0 2.747 1.88 4.745 4.762 4.745 2.883-.125 4.762-2.123 4.762-4.745zm2.758 10.491h2.506c1.378 0 1.88-.5 1.88-1.748V12.87h4.637v17.235c0 4.12-1.63 5.87-6.141 5.87h-2.882v-4.247zm11.404-10.49c0-5.12 3.76-8.867 9.023-8.867 5.64 0 9.023 3.996 9.023 8.992v1.373H89.16c.126 2.123 1.88 3.497 4.763 3.497 2.13 0 3.509-.874 5.138-2.498l2.882 2.873c-1.88 2.123-4.386 3.372-8.02 3.372-5.765 0-9.274-3.497-9.274-8.742zm13.535-1.873c-.251-1.999-2.006-3.247-4.387-3.247-2.506 0-4.26 1.248-4.511 3.247h8.898zM105.076 8h4.637v11.49l7.52-6.744h6.516l-7.895 6.743L124 29.355h-5.64l-5.514-6.993-3.133 2.622v4.371h-4.637V8z" fill="#000"/>
</svg>
