<svg width="30" height="30" viewBox="0 0 30 30" fill="none" xmlns="http://www.w3.org/2000/svg">
<path d="M27.265 15.2874C27.265 14.4377 27.1961 13.5834 27.0491 12.7476H15.2588V17.5609H22.0105C21.7303 19.1133 20.8301 20.4866 19.5119 21.3592V24.4824H23.54C25.9054 22.3053 27.265 19.0903 27.265 15.2874Z" fill="#4285F4"/>
<path d="M15.2586 27.5C18.6299 27.5 21.473 26.3931 23.5444 24.4825L19.5163 21.3593C18.3957 22.1217 16.9489 22.5535 15.2632 22.5535C12.0022 22.5535 9.23714 20.3534 8.24507 17.3956H4.08838V20.6152C6.21036 24.8361 10.5324 27.5 15.2586 27.5Z" fill="#34A853"/>
<path d="M8.24057 17.3955C7.71697 15.8431 7.71697 14.1621 8.24057 12.6097V9.39008H4.08847C2.31556 12.922 2.31556 17.0832 4.08847 20.6151L8.24057 17.3955Z" fill="#FBBC04"/>
<path d="M15.2586 7.44739C17.0407 7.41983 18.7631 8.09039 20.0537 9.32127L23.6225 5.75261C21.3628 3.6307 18.3635 2.4641 15.2586 2.50084C10.5324 2.50084 6.21036 5.16472 4.08838 9.39019L8.24047 12.6098C9.228 9.64739 11.9976 7.44739 15.2586 7.44739Z" fill="#EA4335"/>
</svg>
