<svg width="30" height="30" viewBox="0 0 30 30" fill="none" xmlns="http://www.w3.org/2000/svg">
<path d="M25.504 3.85C18.5501 3.85 15.9743 8.81348 13.9079 12.8018L12.5544 15.3529C10.3587 19.5826 8.7201 22.1508 4.49799 22.1508C3.96826 22.1513 3.46038 22.362 3.0858 22.7366C2.71122 23.1111 2.5005 23.6191 2.5 24.1488V24.1488C2.5005 24.6783 2.71126 25.186 3.08589 25.5603C3.46052 25.9346 3.96843 26.1448 4.49799 26.1448V26.1448C11.4518 26.1448 14.0277 21.1813 16.094 17.1931L17.4456 14.6419C19.6432 10.4122 21.2799 7.84398 25.502 7.84398C26.0319 7.84398 26.5401 7.6335 26.9148 7.25881C27.2894 6.88413 27.5 6.37593 27.5 5.84604V5.84604C27.5 5.58376 27.4483 5.32404 27.3479 5.08175C27.2474 4.83945 27.1002 4.61934 26.9147 4.43397C26.7291 4.24859 26.5089 4.10159 26.2665 4.00139C26.0241 3.90119 25.7643 3.84975 25.502 3.85H25.504Z" fill="#00DDB3"/>
</svg>
