<svg width="30" height="30" viewBox="0 0 30 30" fill="none" xmlns="http://www.w3.org/2000/svg">
<g clip-path="url(#clip0_4808_46441)">
<g clip-path="url(#clip1_4808_46441)">
<path d="M2.13232 15C2.13232 20.0936 5.09241 24.4954 9.38477 26.5813L3.24643 9.763C2.53242 11.3634 2.13232 13.1344 2.13232 15Z" fill="#464342"/>
<path d="M23.6873 14.3506C23.6873 12.7603 23.1161 11.6589 22.6261 10.8016C21.9738 9.74165 21.3624 8.844 21.3624 7.78401C21.3624 6.60111 22.2596 5.49998 23.5233 5.49998C23.5803 5.49998 23.6344 5.50708 23.69 5.51026C21.4006 3.41281 18.3504 2.1322 15.0003 2.1322C10.5047 2.1322 6.54947 4.43876 4.24854 7.9324C4.55045 7.94146 4.83497 7.94782 5.07665 7.94782C6.42263 7.94782 8.50613 7.7845 8.50613 7.7845C9.19981 7.74361 9.28159 8.76247 8.58864 8.84449C8.58864 8.84449 7.89153 8.92652 7.11582 8.96717L11.8019 22.9057L14.618 14.4598L12.6131 8.96668C11.9202 8.92603 11.2637 8.844 11.2637 8.844C10.5703 8.80336 10.6516 7.74312 11.345 7.78401C11.345 7.78401 13.4701 7.94733 14.7346 7.94733C16.0803 7.94733 18.1641 7.78401 18.1641 7.78401C18.8582 7.74312 18.9398 8.76198 18.2466 8.844C18.2466 8.844 17.548 8.92603 16.7738 8.96668L21.4241 22.7997L22.7076 18.5105C23.264 16.7306 23.6873 15.4522 23.6873 14.3506Z" fill="#464342"/>
<path d="M15.2262 16.1256L11.3652 27.3448C12.518 27.6836 13.7372 27.869 15.0004 27.869C16.4989 27.869 17.936 27.6099 19.2737 27.1396C19.2391 27.0845 19.2078 27.026 19.1821 26.9623L15.2262 16.1256Z" fill="#464342"/>
<path d="M26.2917 8.82617C26.3471 9.23606 26.3784 9.67607 26.3784 10.1494C26.3784 11.4552 26.1345 12.9231 25.3999 14.7586L21.4692 26.1232C25.2949 23.8923 27.8681 19.7476 27.8681 15.0003C27.8684 12.763 27.2969 10.6592 26.2917 8.82617Z" fill="#464342"/>
<path d="M15.0005 0C6.72943 0 0 6.72894 0 15C0 23.272 6.72943 30.0007 15.0005 30.0007C23.2713 30.0007 30.0017 23.272 30.0017 15C30.0015 6.72894 23.2713 0 15.0005 0ZM15.0005 29.3132C7.10872 29.3132 0.687806 22.8923 0.687806 15C0.687806 7.10823 7.10847 0.687806 15.0005 0.687806C22.892 0.687806 29.3124 7.10823 29.3124 15C29.3124 22.8923 22.892 29.3132 15.0005 29.3132Z" fill="#464342"/>
</g>
</g>
<defs>
<clipPath id="clip0_4808_46441">
<rect width="30" height="30" fill="white"/>
</clipPath>
<clipPath id="clip1_4808_46441">
<rect width="30" height="30.0007" fill="white"/>
</clipPath>
</defs>
</svg>
