<svg width="2033" height="464" fill="none" xmlns="http://www.w3.org/2000/svg" id="svg1823431354_617" style="position: absolute; left: 50%; transform: translate(-50%, 0px);"><path d="M36.928 219.294C346.14-100.516 689.084 1.766 964.671 83.847l177.559 51.229c292.11 87.199 483.27 126.153 671.11-68.132a127.753 127.753 0 0 1 40.98-28.389 127.733 127.733 0 0 1 48.72-10.547A127.725 127.725 0 0 1 1994 63.904a127.94 127.94 0 0 1 3.05 180.661c-309.34 319.938-652.28 217.653-927.86 135.571l-177.441-51.353c-292.237-87.072-483.39-126.025-671.112 68.132a127.754 127.754 0 0 1-40.977 28.461 127.751 127.751 0 0 1-139.805-25.297A127.946 127.946 0 0 1 .986 310.29a127.933 127.933 0 0 1 35.942-90.996Z" fill="#D6FEF1"></path></svg>