<svg width="96" height="45" fill="none" xmlns="http://www.w3.org/2000/svg">
  <path d="M92.088 16.874c-2.24-2.238-5.18-3.471-8.278-3.471-2.266 0-4.543.844-5.794 1.677-2.59 1.726-4.72 3.599-8.553 8.551v3.56c3.252-4.236 6.33-7.575 8.666-9.412 1.536-1.233 3.715-1.997 5.681-1.997 5.076 0 9.366 4.289 9.366 9.367v2.143a9.27 9.27 0 01-2.78 6.641c-1.778 1.758-4.118 2.727-6.586 2.727-4.171 0-7.843-2.864-8.841-6.774l-1.677 2.033c1.223 4.097 5.64 7.12 10.518 7.12 3.099 0 6.038-1.235 8.278-3.47 2.236-2.238 3.468-5.177 3.468-8.277v-2.143c0-3.098-1.232-6.039-3.468-8.275zm-50.964-1.092c1.616 0 3.014.347 4.276 1.062a21.268 21.268 0 011.638-1.789c-1.335-1.02-3.595-1.652-5.914-1.652-3.305 0-6.305 1.191-8.448 3.357-2.127 2.146-3.301 5.125-3.301 8.39v13.889h2.379v-13.89c0-5.515 3.853-9.367 9.37-9.367zM63.732 39.04V25.15c0-4.27-3.345-7.616-7.615-7.616-1.99 0-3.888.806-5.35 2.267-1.46 1.46-2.266 3.362-2.266 5.35v2.142c0 4.127 3.49 7.616 7.616 7.616 1.131 0 2.671-.278 3.614-1.052v-2.514c-.926.744-2.27 1.187-3.614 1.187-2.936 0-5.236-2.302-5.236-5.237V25.15c0-2.936 2.3-5.234 5.236-5.234 2.937 0 5.236 2.298 5.236 5.234v13.89h2.38zM0 23.77v.768c0 4.125 1.565 7.974 4.408 10.837 2.836 2.857 6.638 4.427 10.704 4.427 3.27 0 6.165-.74 8.609-2.193 2.015-1.202 2.908-2.416 2.985-2.527V22.276H14.535v2.38h9.792v9.688l-.01.008c-1.146 1.149-3.868 3.07-9.205 3.07-3.477 0-6.697-1.325-9.07-3.737-2.362-2.4-3.663-5.65-3.663-9.146v-.768c0-3.302 1.49-6.595 4.084-9.032a14.168 14.168 0 019.72-3.853c3.376 0 5.728.513 7.617 1.657v-2.67c-1.967-.837-4.317-1.213-7.617-1.213C7.412 8.66 0 15.581 0 23.77zm41.124-3.856c.902 0 1.667.15 2.276.446.296-.739.6-1.348 1.043-2.087-.647-.463-2.187-.74-3.32-.74-4.34 0-7.615 3.273-7.615 7.615v13.89h2.38v-13.89c0-3.083 2.153-5.234 5.236-5.234zM23.8 17.122v-2.814c-2.153-1.155-4.502-1.67-7.617-1.67-3.178 0-6.19 1.167-8.486 3.28-2.298 2.12-3.565 4.91-3.565 7.853v.768c0 6.14 4.925 11.133 10.98 11.133 4.926 0 6.947-1.611 7.462-2.121v-7.143h-8.04v2.378h5.814v3.58l-.02.006c-.749.298-2.302.92-5.216.92-2.31 0-4.47-.898-6.086-2.534-1.624-1.64-2.515-3.85-2.515-6.219v-.768c0-4.745 4.43-8.752 9.672-8.752 3.627 0 5.772.587 7.617 2.103zm56.162 4.482c1.073-1.071 2.478-1.689 3.848-1.689 2.935 0 5.237 2.298 5.237 5.234v2.143c0 2.935-2.302 5.237-5.237 5.237-1.421 0-2.794-.78-3.87-2.193-.953-1.248-1.57-2.937-1.666-4.454l-1.927 2.352c.379 1.8 1.32 3.524 2.648 4.736 1.372 1.248 3.082 1.938 4.815 1.938 4.2 0 7.615-3.417 7.615-7.616v-2.143c0-1.987-.804-3.889-2.264-5.349-1.463-1.461-3.362-2.267-5.35-2.267-1.258 0-3.258.451-5.64 2.594l-.009.008c-.638.638-2.135 2.136-3.046 3.203-1.532 1.671-3.757 4.194-5.653 6.718v3.715c2.104-2.704 3.316-4.218 5.294-6.503 1.77-2.067 3.964-4.579 5.204-5.664zm-35.59 5.688c0 3.1 1.232 6.039 3.468 8.277 2.239 2.235 5.179 3.47 8.277 3.47 1.312 0 2.66-.28 3.614-.75V35.91c-1.114.467-2.46.748-3.614.748-5.076 0-9.368-4.289-9.368-9.367v-2.143c0-5.078 4.292-9.367 9.368-9.367 2.524 0 4.883.966 6.643 2.726 1.758 1.759 2.724 4.117 2.724 6.641v13.89h2.38V24.692a11.861 11.861 0 00-3.644-7.988c-2.204-2.129-5.085-3.301-8.103-3.301-3.098 0-6.038 1.233-8.277 3.471-2.236 2.236-3.469 5.177-3.469 8.275v2.143zm27.54-9.21c.728-.875 1.482-1.764 2.376-2.514V3h-2.376v15.081zm4.129-3.488V3h2.378v9.963c-.646.326-1.548.946-2.378 1.631" fill="#282828"/>
</svg>
