<svg width="118" height="45" fill="none" xmlns="http://www.w3.org/2000/svg">
  <path d="M16.134 35.95c-1.765.31-3.562.404-5.42.652L5.049 19.953v17.364c-1.766.186-3.376.435-5.048.683V6.193h4.707l6.441 18.047V6.193h4.986V35.95zm9.754-18.109c1.92 0 4.862-.093 6.627-.093v4.97c-2.198 0-4.769 0-6.627.093v7.393c2.911-.187 5.822-.435 8.764-.529v4.784l-13.719 1.087V6.193h13.719v4.97h-8.764v6.678zm27.19-6.678h-5.141v22.861c-1.673 0-3.345 0-4.955.062V11.163h-5.14v-4.97h15.235v4.97zm8.05 6.336h6.782v4.97h-6.782v11.276h-4.862V6.193H70.11v4.97h-8.98v6.336zM78.16 29.396c2.818.062 5.667.28 8.423.435v4.908c-4.428-.28-8.856-.56-13.377-.653V6.193h4.954v23.203zm12.604 5.684c1.579.094 3.251.187 4.861.373V6.193h-4.861V35.08zm26.569-28.887l-6.286 15.127L117.333 38c-1.858-.248-3.716-.59-5.574-.9l-3.561-9.195-3.623 8.449c-1.796-.31-3.53-.404-5.326-.653l6.379-14.568-5.76-14.94h5.326l3.252 8.356 3.468-8.356h5.419z" fill="#000"/>
</svg>
