<svg width="143" height="45" fill="none" xmlns="http://www.w3.org/2000/svg">
  <path d="M28.18 15.518a16.276 16.276 0 009.495 3.037v-6.81c-.67 0-1.339-.07-1.994-.208v5.36a16.28 16.28 0 01-9.494-3.037v13.896c0 6.951-5.639 12.586-12.593 12.586-2.595 0-5.007-.784-7.01-2.129A12.558 12.558 0 0015.587 42c6.955 0 12.594-5.635 12.594-12.587V15.518zm2.46-6.87a9.488 9.488 0 01-2.46-5.556v-.876h-1.89a9.533 9.533 0 004.35 6.432zM10.982 32.879a5.759 5.759 0 016.333-8.973v-6.961a12.7 12.7 0 00-1.993-.115v5.418a5.768 5.768 0 00-1.748-.27 5.759 5.759 0 00-2.592 10.901z" fill="#3C3C3C"/>
  <path d="M26.186 13.86a16.28 16.28 0 009.494 3.036v-5.36a9.532 9.532 0 01-5.04-2.888 9.533 9.533 0 01-4.35-6.432h-4.963v27.197a5.76 5.76 0 01-10.346 3.466 5.757 5.757 0 012.592-10.9c.61 0 1.197.095 1.748.27V16.83c-6.832.141-12.327 5.72-12.327 12.583a12.54 12.54 0 003.589 8.8 12.538 12.538 0 007.01 2.13c6.955 0 12.593-5.636 12.593-12.587V13.86z" fill="#000"/>
  <path d="M35.68 11.537v-1.45a9.496 9.496 0 01-5.04-1.439 9.523 9.523 0 005.04 2.889zm-9.39-9.32c-.045-.26-.08-.52-.104-.783V.56h-6.853v27.197a5.76 5.76 0 01-8.352 5.124 5.76 5.76 0 0010.346-3.466V2.216h4.963zM15.321 16.83v-1.542a12.72 12.72 0 00-1.728-.118C6.638 15.17 1 20.805 1 27.756c0 4.358 2.216 8.199 5.583 10.458a12.54 12.54 0 01-3.59-8.8c0-6.863 5.496-12.443 12.328-12.584z" fill="#C2C2C2"/>
  <path d="M115.084 34.644c4.976 0 9.01-4.002 9.01-8.937 0-4.936-4.034-8.938-9.01-8.938h-1.358c4.977 0 9.011 4.002 9.011 8.938 0 4.935-4.034 8.937-9.011 8.937h1.358z" fill="#3C3C3C"/>
  <path d="M113.602 16.769h-1.357c-4.976 0-9.011 4.002-9.011 8.938 0 4.935 4.035 8.937 9.011 8.937h1.357c-4.976 0-9.011-4.002-9.011-8.937 0-4.936 4.035-8.938 9.011-8.938z" fill="#BEBEBE"/>
  <path d="M45.1 12.729v4.53h5.306V34.52h5.309V17.38h4.32l1.48-4.652H45.1zm43.447 0v4.53h5.307V34.52h5.308V17.38h4.32l1.481-4.652H88.547zm-26.043 2.57a2.58 2.58 0 012.59-2.57 2.581 2.581 0 012.593 2.57 2.58 2.58 0 01-2.593 2.571 2.58 2.58 0 01-2.59-2.57zm0 4.408h5.182v14.814h-5.182V19.707zm7.405-6.979v21.793h5.184V28.89l1.605-1.47 5.06 7.224h5.554l-7.283-10.53 6.542-6.367h-6.295l-5.183 5.142V12.73H69.91zm55.913 0v21.793h5.185V28.89l1.604-1.47 5.061 7.224h5.555l-7.283-10.53 6.541-6.367h-6.294l-5.184 5.142V12.73h-5.185zm-12.096 21.916c4.976 0 9.011-4.002 9.011-8.937 0-4.936-4.035-8.938-9.011-8.938h-.123c-4.977 0-9.011 4.002-9.011 8.938 0 4.935 4.034 8.937 9.011 8.937h.123zm-4.444-8.937c0-2.401 1.963-4.346 4.383-4.346 2.419 0 4.381 1.945 4.381 4.346 0 2.4-1.962 4.346-4.381 4.346-2.42 0-4.383-1.945-4.383-4.346z" fill="#000"/>
</svg>
