<svg width="78" height="76" viewBox="0 0 78 76" fill="none" xmlns="http://www.w3.org/2000/svg">
<g clip-path="url(#clip0_774:14060)">
<path d="M13.8034 0H64.1453C71.7778 0 77.9487 6.17094 77.9487 13.8034V62.1966C77.9487 69.8291 71.7778 76 64.1453 76H13.8034C6.17094 76 0 69.8291 0 62.1966V13.8034C0 6.17094 6.17094 0 13.8034 0Z" fill="#470137"/>
<path d="M40.988 19.9742L31.2444 36.0512L41.6376 53.1024C41.7025 53.2324 41.735 53.3623 41.7025 53.4922C41.67 53.6221 41.5401 53.5247 41.3453 53.5571H33.9076C33.388 53.5571 33.0307 53.5247 32.8034 53.1999C32.1213 51.8358 31.4068 50.5042 30.7247 49.1401C30.0427 47.8084 29.2957 46.4443 28.5162 45.0477C27.7367 43.6512 26.9572 42.2546 26.1777 40.8255H26.1128C25.4307 42.2221 24.6837 43.6187 23.9367 45.0153C23.1897 46.4119 22.4427 47.8084 21.7282 49.1725C20.9812 50.5366 20.2341 51.9332 19.4871 53.2648C19.3572 53.5896 19.0974 53.6221 18.7401 53.6221H11.5948C11.4649 53.6221 11.3675 53.6871 11.3675 53.5247C11.335 53.3948 11.3675 53.2648 11.4324 53.1674L21.5333 36.6033L11.6923 19.9418C11.5948 19.8118 11.5623 19.6819 11.6273 19.617C11.6923 19.5195 11.8222 19.4871 11.9521 19.4871H19.3247C19.4871 19.4871 19.6495 19.5195 19.7794 19.552C19.9094 19.617 20.0068 19.7144 20.1042 19.8443C20.7213 21.2409 21.4359 22.6375 22.1829 24.0341C22.9623 25.4307 23.7094 26.7948 24.5213 28.1589C25.3008 29.523 26.0153 30.8871 26.6974 32.2836H26.7623C27.4444 30.8546 28.1589 29.458 28.8735 28.0939C29.588 26.7298 30.335 25.3657 31.082 24.0016C31.829 22.6375 32.5435 21.2409 33.2581 19.9093C33.2906 19.7794 33.3555 19.6495 33.4529 19.5845C33.5829 19.5195 33.7128 19.4871 33.8752 19.5195H40.7282C40.8906 19.4871 41.0529 19.5845 41.0854 19.7469C41.1179 19.7794 41.0529 19.9093 40.988 19.9742Z" fill="#FF61F6"/>
<path d="M55.9931 54.2393C53.5897 54.2718 51.1862 53.7846 49.0102 52.7778C46.964 51.8359 45.2751 50.2769 44.1059 48.3607C42.9042 46.3795 42.3196 43.9111 42.3196 40.9556C42.2871 38.5521 42.9042 36.1812 44.1059 34.1026C45.3401 31.9915 47.1264 30.2376 49.27 29.0684C51.5435 27.8017 54.2717 27.1846 57.4871 27.1846C57.6495 27.1846 57.8768 27.1846 58.1692 27.2171C58.4615 27.2496 58.7862 27.2496 59.176 27.2821V17.0188C59.176 16.7915 59.2734 16.6615 59.5008 16.6615H66.0939C66.2563 16.6291 66.3862 16.759 66.4187 16.8889C66.4187 16.9214 66.4187 16.9539 66.4187 16.9539V47.8735C66.4187 48.4581 66.4512 49.1077 66.4837 49.8222C66.5486 50.5043 66.5811 51.1539 66.6136 51.706C66.6136 51.9333 66.5162 52.1282 66.2888 52.2256C64.5999 52.9402 62.8136 53.4598 60.9948 53.7846C59.3384 54.0769 57.682 54.2393 55.9931 54.2393ZM59.176 47.7436V33.453C58.8837 33.388 58.5914 33.3231 58.2991 33.2906C57.9418 33.2581 57.5845 33.2256 57.2273 33.2256C55.9606 33.2256 54.6939 33.4855 53.5572 34.0701C52.4529 34.6222 51.511 35.4342 50.7965 36.4735C50.082 37.5128 49.7247 38.9094 49.7247 40.5983C49.6922 41.735 49.8871 42.8718 50.2768 43.9436C50.6016 44.8205 51.0888 45.6 51.7384 46.2496C52.3555 46.8342 53.1025 47.2889 53.9469 47.5487C54.8239 47.841 55.7332 47.9709 56.6427 47.9709C57.1298 47.9709 57.5845 47.9385 58.0068 47.906C58.429 47.9385 58.7862 47.8735 59.176 47.7436Z" fill="#FF61F6"/>
</g>
<defs>
<clipPath id="clip0_774:14060">
<rect width="77.9487" height="76" fill="white"/>
</clipPath>
</defs>
</svg>
