<svg width="52" height="51" fill="none" xmlns="http://www.w3.org/2000/svg">
  <path d="M9.208.191h33.518a9.182 9.182 0 019.19 9.19v32.22a9.182 9.182 0 01-9.19 9.19H9.208a9.182 9.182 0 01-9.19-9.19V9.381a9.182 9.182 0 019.19-9.19z" fill="#00005B"/>
  <path d="M20.864 30.465H12.82l-1.644 5.103a.378.378 0 01-.41.303H6.7c-.238 0-.302-.13-.238-.39l6.963-19.958c.065-.216.13-.411.217-.67.086-.455.13-.93.13-1.406-.022-.108.064-.216.172-.238h5.601c.151 0 .26.065.281.173l7.893 22.165c.065.237 0 .346-.216.346h-4.52c-.151.021-.303-.087-.346-.238l-1.773-5.19zm-6.79-4.303h5.493c-.13-.454-.303-.995-.498-1.557a65.03 65.03 0 01-.584-1.86c-.216-.67-.41-1.319-.627-1.99a46.8 46.8 0 01-.584-1.924c-.173-.605-.324-1.168-.475-1.686h-.044c-.194.93-.432 1.86-.735 2.789-.324 1.038-.649 2.12-.995 3.2a33.644 33.644 0 01-.951 3.028zm26.468 2.313h-6.855c.087.67.303 1.341.67 1.925.39.584.93 1.038 1.579 1.297a6.727 6.727 0 002.768.54A13.003 13.003 0 0040.953 32a8.18 8.18 0 001.924-.497c.108-.087.173-.044.173.173v3.308c0 .087-.021.173-.043.26a.506.506 0 01-.151.151 9.251 9.251 0 01-2.163.649 14.61 14.61 0 01-3.07.26c-1.644 0-3.028-.26-4.152-.758a7.28 7.28 0 01-2.725-2.054 7.936 7.936 0 01-1.492-2.833 11.038 11.038 0 01-.454-3.157c0-1.167.173-2.313.54-3.438a8.825 8.825 0 011.622-2.962 7.838 7.838 0 012.617-2.055c1.016-.497 2.227-.67 3.611-.67a7.81 7.81 0 013.352.67c.886.39 1.665.973 2.27 1.73a7.916 7.916 0 011.298 2.465c.28.865.41 1.752.41 2.639 0 .518-.021.973-.043 1.383-.043.411-.064.714-.086.909-.022.151-.151.28-.303.28-.13 0-.367.022-.713.044-.346.043-.757.065-1.255.065-.497 0-1.016-.087-1.578-.087zm-6.855-3.157h4.563c.562 0 .973 0 1.232-.021.173-.022.346-.065.498-.173v-.217c0-.28-.044-.54-.13-.8a2.862 2.862 0 00-2.811-1.99 3.045 3.045 0 00-2.876 1.644 4.48 4.48 0 00-.476 1.557z" fill="#99F"/>
</svg>
