<svg width="114" height="45" fill="none" xmlns="http://www.w3.org/2000/svg">
  <path fill-rule="evenodd" clip-rule="evenodd" d="M.313 3.322C.005 3.639 0 3.859 0 17.702c0 11.003.043 14.114.196 14.314.107.14.971.687 1.919 1.215.948.527 3.627 2.03 5.953 3.338l5.091 2.862c.474.266 1.292.728 1.817 1.026.525.299 1.11.543 1.301.543.19 0 2.263-1.076 4.607-2.391 2.343-1.316 5.846-3.28 7.785-4.364 1.939-1.085 3.613-2.088 3.72-2.229.154-.2.196-3.325.196-14.385V3.501l-.348-.25C31.927 3.028 30.152 3 16.257 3 .836 3 .623 3.004.314 3.322zm30.388 14.612l-.004 13.002-1.837 1.006a472.02 472.02 0 00-4.5 2.51c-5.212 2.948-7.94 4.455-8.062 4.455-.113 0-7.912-4.331-12.46-6.92l-1.88-1.07-.04-12.993-.04-12.992h28.827l-.004 13.002zM9.243 8.797v.966h16.763v7.584l.9-.049.901-.048.042-4.355c.04-4.201.03-4.367-.28-4.71l-.322-.354H9.243v.966zm41.412 2.389c-1.715.45-2.821 1.094-4.053 2.358-1.802 1.848-2.603 3.856-2.603 6.524 0 4.517 2.822 8.102 7.053 8.96 3.331.677 6.618-.52 8.657-3.153l.61-.787-.512-.316c-.28-.174-.934-.55-1.451-.837l-.94-.52-.876.881c-1.092 1.099-2.074 1.486-3.745 1.477-1.368-.008-2.155-.235-3.134-.906-2.478-1.697-3.106-5.623-1.324-8.282 1.203-1.796 3.54-2.65 5.853-2.14.946.207 2.514 1.214 2.822 1.81.122.238.289.431.37.431.28 0 2.774-1.53 2.775-1.701 0-.174-.967-1.419-1.408-1.81-.759-.675-2.23-1.528-3.122-1.812-1.483-.47-3.572-.545-4.972-.177zm14.046 8.773c0 7.128.042 9.107.196 9.162.107.039.407.052.665.03.259-.022.981-.046 1.606-.053l1.136-.013v-6.28h2.626l1.773 3.1c.976 1.704 1.848 3.155 1.938 3.224.141.107 3.69.114 3.69.007 0-.035-1.35-2.396-3.196-5.592-.56-.97-.72-1.202-.565-1.303a6.93 6.93 0 00.34-.239c.276-.205 1.94-1.795 2.368-2.645.444-.882.493-1.124.498-2.432.005-1.318-.041-1.55-.497-2.496-.63-1.306-1.475-2.203-2.741-2.91a4.45 4.45 0 00-2.114-.562l-3.298-.038-4.425-.052v9.092zm18.172.109v9.178H93.84v-3.543h-7.52v-4.025h3.351c2.542 0 3.367-.049 3.417-.201.037-.11.062-.89.056-1.731l-.01-1.53-3.407-.043-3.407-.044v-3.858h7.52V10.89H82.873v9.178zm15.51-.08v9.097h4.168c4.623 0 5.408-.113 6.955-1.001 1.327-.762 2.129-1.513 2.918-2.734 3.522-5.446.842-12.98-5.08-14.278-.496-.109-2.467-.182-4.896-.182h-4.065v9.097zm-93.37-7.005c-.305.313-.313.537-.313 8.1 0 5.974.045 7.841.196 8.046.315.429 10.962 6.448 11.397 6.443.432-.005 11.084-6.032 11.397-6.449.142-.19.195-1.177.195-3.611V22.16h-1.88l-.004 2.939-.005 2.938-4.75 2.697c-2.611 1.484-4.848 2.697-4.97 2.697-.122 0-1.525-.745-3.118-1.656a1544.71 1544.71 0 00-4.736-2.697l-1.839-1.04-.002-6.723-.001-6.723h14.413V12.66H13.16c-7.625 0-7.842.009-8.147.322zm67.988 1.57c1.591.82 1.662 3.745.114 4.715-.435.273-.795.316-2.657.316h-2.154v-5.312h2.076c1.663 0 2.184.057 2.621.282zm34.822.33c1.918.972 2.873 2.879 2.75 5.491-.111 2.342-1.082 3.939-2.934 4.824-.801.383-1.083.423-3.342.479l-2.468.06v-11.5l2.471.057c2.429.057 2.489.067 3.523.59zM9.4 22.715c0 1.633.065 3.145.145 3.36.106.288.98.875 3.25 2.185 1.708.985 3.273 1.792 3.478 1.792.317 0 5.223-2.659 6.043-3.275.262-.197.255-.254-.136-1.047l-.413-.839-.662.391c-2.209 1.306-4.678 2.677-4.821 2.677-.153 0-4.125-2.226-4.71-2.64-.318-.225-.294.018-.294-2.996v-2.576H9.4v2.968z" fill="#000"/>
</svg>
