<svg width="107" height="45" fill="none" xmlns="http://www.w3.org/2000/svg">
  <path d="M92.285 19.655c-1.805.413-6.572.642-6.572.642l-.586 1.865s2.36-.199 4.088-.03c0 0 .556-.046.617.61.031.673-.046 1.376-.046 1.376s-.046.413-.617.52c-.663.107-5.137.306-5.137.306l-.725 2.415s-.263.55.34.397c.554-.153 5.244-1.04 5.861-.917.648.153 1.389 1.04 1.173 1.834-.247.963-4.937 3.928-7.775 3.73 0 0-1.497.091-2.747-1.911-1.203-1.91.417-5.502.417-5.502s-.725-1.682-.185-2.293c0 0 .308-.26 1.234-.336l1.157-2.354s-1.311.076-2.083-.871c-.71-.917-.77-1.315-.215-1.56.586-.305 6.016-1.268 9.75-1.146 0 0 1.31-.152 2.468 2.094 0 0 .525.917-.401 1.131h-.016zm-14.07 9.049c-.462 1.115-1.743 2.292-3.285 1.574-1.574-.734-4.058-5.747-4.058-5.747s-.925-1.865-1.11-1.803c0 0-.201-.367-.31 1.68-.153 2.034.032 5.992-.817 6.619-.771.611-1.697.351-2.221-.367-.432-.718-.617-2.445-.37-5.456.277-3.011.971-6.221 1.85-7.215.926-1.008 1.667-.275 1.945 0 0 0 1.188 1.07 3.193 4.234l.34.58s1.82 3.012 2.005 2.997c0 0 .154.152.278.03.185-.046.123-1.024.123-1.024s-.34-3.255-2.036-8.758c0 0-.247-.703-.078-1.375.155-.612.818-.306.818-.306s2.561 1.223 3.81 5.35c1.235 4.126.402 7.87-.06 8.987h-.016zM65.659 18.112c-.247.428-.355 1.024-1.42 1.192 0 0-10.336.718-10.845 1.437 0 0-.34.428.216.535.586.122 2.931.427 4.042.489 1.203 0 5.245.03 6.726 1.834 0 0 .849.856.818 2.797-.03 1.987-.386 2.69-1.173 3.408-.817.673-7.821 3.79-12.342-.978 0 0-2.067-2.293.726-4.035 0 0 2.005-1.223 7.142.199 0 0 1.543.55 1.481 1.115-.092.612-1.28 1.223-3.008 1.192-1.666-.045-2.9-.84-2.653-.703.231.077-1.805-.978-2.438-.26-.617.673-.463 1.07.154 1.483 1.543.887 7.606.566 9.411-1.437 0 0 .725-.81-.37-1.467-1.08-.611-4.227-.993-5.446-1.04-1.157-.06-5.492 0-6.14-1.115 0 0-.617-.795.062-2.965.71-2.293 5.754-3.18 7.945-3.363 0 0 6.016-.244 7.143.979 0 0 .154.275-.031.687v.016zM48.595 31.547c-.725.534-2.268.305-2.715-.306-.432-.535-.586-2.644-.51-5.961.109-3.393.155-7.55.926-8.223.772-.657 1.235-.076 1.543.367.309.458.71.963.772 2.017.092 1.07.354 6.573.354 6.573s.34 5.013-.355 5.533h-.015zm1.543-17.883c-2.13.718-3.58.49-4.814-.046-.54.963-.863 1.253-1.265 1.315-.617.06-1.157-.917-1.234-1.223-.123-.23-.416-.642-.062-1.574-1.203-1.07-1.295-2.507-1.08-3.47.278-1.13 2.315-5.38 8.486-5.884 0 0 3.023-.214 3.548 1.375h.093s2.93 0 2.869 2.599c0 2.598-3.24 5.838-6.541 6.954v-.046zm2.746-7.398c-1.944.306-4.937 2.874-6.372 4.998 2.206.398 6.063.245 7.791-3.21 0 0 .818-2.17-1.42-1.788zm-8.532 1.682c-.617.993-.647 1.59-.354 1.987.725-1.07 2.005-2.751 3.934-4.066-1.481.153-2.731.764-3.58 2.079zm52.562 23.491c-1.42 3.455-2.623 6.955-3.317 12.197 0 0-.154 1.024-1.003.688-.849-.306-2.237-1.681-2.546-3.622-.308-2.538.834-6.817 3.163-11.738-.679-1.07-1.157-2.66-.771-4.891 0 0 .617-4.127 4.782-7.857 0 0 .494-.412.772-.275.339.153.2 1.468-.078 2.14-.246.642-2.098 3.821-2.098 3.821s-1.157 2.17-.833 3.867c2.19-3.332 7.174-10.087 10.259-7.948 1.96 1.376 1.96 5.808.494 8.376-1.157 2.033-4.428 6.236-8.793 5.258l-.031-.015zm6.448-10.378c-1.141 1.223-3.178 3.547-4.782 6.695 1.697-.183 3.348-1.116 3.857-1.59.817-.718 2.699-2.659 2.406-5.227 0 0-.185-1.345-1.481.122zM34.248 33.243c-5.462 1.65-10.614.886-13.422.153-.077 1.13-.2 1.605-.386 1.788-.216.245-2.006 1.253-2.993-.183-.432-.688-.648-1.926-.771-3.057-6.325-2.843-9.257-7.03-9.35-7.184-.153-.152-1.588-1.635-.153-3.47 1.342-1.65 5.785-3.316 9.765-3.973.154-3.363.525-5.96 1.003-7.107.57-1.376 1.296-.153 1.944.764.524.688.848 3.638.879 5.991 2.592-.122 4.165.061 7.05.612 3.796.642 6.326 2.567 6.125 4.738-.185 2.14-2.16 3.026-2.931 3.087-.771.061-2.006-.504-2.006-.504-.864-.398-.077-.764.926-1.192 1.11-.535.864-1.07.864-1.07-.401-1.223-5.323-2.033-10.213-2.033 0 2.675.108 7.107.185 9.69 3.425.642 5.986.505 5.986.505s12.496-.352 12.85-8.254c.387-7.917-12.495-15.498-21.983-17.882C8.144 2.2 2.776 3.943 2.313 4.172c-.51.245-.046.337-.046.337s.509.076 1.434.382c.926.306.185.764.185.764-1.62.55-3.424.23-3.78-.504-.354-.719.232-1.376.926-2.339.648-.993 1.389-.963 1.389-.963C14.146-2.2 28.462 5.06 28.462 5.06c13.391 6.695 15.674 14.566 15.428 17.623-.216 3.01-1.389 8.1-9.642 10.576v-.015zM8.484 22.315c-1.327.611-.401 1.59-.401 1.59 2.499 2.644 5.554 4.31 8.485 5.349.34-4.585.308-6.22.308-8.529-4.535.306-7.158 1.04-8.392 1.59z" fill="#000"/>
</svg>
