<svg width="111" height="45" fill="none" xmlns="http://www.w3.org/2000/svg">
  <path d="M13.67 3h.988c3.427.076 6.798 1.484 9.219 3.975-.894.932-1.807 1.826-2.682 2.758-1.36-1.255-3-2.225-4.787-2.567-2.644-.57-5.494-.057-7.71 1.483-2.421 1.617-4.06 4.356-4.414 7.285-.391 2.89.41 5.934 2.254 8.178 1.769 2.188 4.47 3.557 7.263 3.652 2.607.152 5.327-.666 7.226-2.53 1.49-1.312 2.18-3.309 2.403-5.249-3.092 0-6.183.019-9.275 0v-3.918h13.018c.67 4.203-.298 8.94-3.427 11.944-2.085 2.13-4.972 3.386-7.915 3.633-2.85.285-5.792-.266-8.325-1.674a14.546 14.546 0 01-6.65-7.74c-1.115-3.026-1.135-6.449-.092-9.493a14.454 14.454 0 015.122-6.941C8.139 4.104 10.876 3.172 13.67 3zm74.684.988h3.986v27.16c-1.323 0-2.664.02-3.986-.018.019-9.035 0-18.088 0-27.142zm-52.315 9.415c2.458-.475 5.122.057 7.152 1.56 1.843 1.331 3.128 3.423 3.52 5.706.502 2.643-.13 5.534-1.807 7.627-1.806 2.339-4.768 3.594-7.654 3.404-2.645-.152-5.215-1.503-6.78-3.709-1.77-2.434-2.197-5.782-1.23-8.635.97-3.062 3.707-5.401 6.799-5.953zm.559 3.614a4.996 4.996 0 00-2.608 1.693c-1.806 2.206-1.695 5.8.298 7.855 1.136 1.179 2.85 1.73 4.433 1.407 1.47-.266 2.756-1.274 3.464-2.605 1.23-2.264.875-5.383-1.006-7.152-1.21-1.141-2.98-1.617-4.581-1.198zm19.183-3.614c2.812-.551 5.885.247 7.99 2.263 3.426 3.139 3.798 9.016.874 12.63-1.77 2.282-4.637 3.537-7.468 3.404-2.7-.076-5.364-1.445-6.965-3.709-1.807-2.491-2.198-5.915-1.174-8.825 1.025-2.967 3.707-5.23 6.742-5.763zm.558 3.614a5.08 5.08 0 00-2.607 1.674c-1.788 2.168-1.714 5.706.205 7.779 1.136 1.236 2.905 1.845 4.544 1.502 1.453-.285 2.756-1.274 3.464-2.605 1.21-2.283.857-5.402-1.043-7.17-1.21-1.142-2.98-1.599-4.563-1.18zm16.184-2.511c2.142-1.37 4.992-1.75 7.3-.57.728.323 1.324.875 1.9 1.426.02-.513 0-1.046.02-1.579 1.247.02 2.495 0 3.76.02v16.775c-.017 2.53-.65 5.211-2.44 7.056-1.954 2.035-4.952 2.663-7.653 2.245-2.887-.438-5.4-2.587-6.518-5.307 1.117-.552 2.29-.989 3.445-1.503.652 1.56 1.974 2.892 3.632 3.196 1.657.304 3.576-.114 4.656-1.522 1.155-1.445 1.155-3.423 1.099-5.192-.857.856-1.844 1.617-3.036 1.902-2.59.742-5.438-.171-7.43-1.96-2.012-1.787-3.204-4.545-3.093-7.284.056-3.1 1.77-6.086 4.358-7.703zm3.856 2.435c-1.136.19-2.198.837-2.924 1.73-1.751 2.13-1.751 5.535.018 7.627 1.006 1.237 2.626 1.922 4.19 1.75 1.472-.152 2.832-1.103 3.558-2.415 1.23-2.226 1.024-5.25-.633-7.19-1.025-1.198-2.663-1.787-4.21-1.502zm20.747-1.465c2.235-2.13 5.68-2.853 8.548-1.73 2.719 1.046 4.451 3.69 5.327 6.41-4.042 1.71-8.064 3.404-12.106 5.115.559 1.085 1.416 2.074 2.57 2.473 1.621.59 3.557.38 4.917-.723.54-.418.968-.97 1.378-1.502 1.025.703 2.049 1.388 3.073 2.092-1.452 2.225-3.892 3.785-6.518 4.032-2.906.362-5.997-.78-7.878-3.1-3.092-3.652-2.794-9.776.689-13.067zm1.993 3.52c-.634.932-.894 2.073-.876 3.195 2.701-1.14 5.401-2.282 8.102-3.442-.447-1.065-1.527-1.712-2.626-1.883-1.77-.324-3.613.646-4.6 2.13z" fill="#000"/>
</svg>
