<svg width="48" height="48" viewBox="0 0 48 48" fill="none" xmlns="http://www.w3.org/2000/svg">
<path d="M47.9999 24.525C47.9999 22.8954 47.8678 21.2569 47.5859 19.6538H24.9734V28.8853H37.9225C37.3851 31.8626 35.6586 34.4964 33.1304 36.1701V42.1599H40.8558C45.3925 37.9846 47.9999 31.8186 47.9999 24.525Z" fill="#4285F4"/>
<path d="M24.9732 47.9472C31.4389 47.9472 36.8916 45.8243 40.8644 42.1599L33.139 36.17C30.9896 37.6322 28.2148 38.4603 24.9819 38.4603C18.7276 38.4603 13.4246 34.2408 11.5219 28.5681H3.5498V34.743C7.61952 42.8381 15.9088 47.9472 24.9732 47.9472Z" fill="#34A853"/>
<path d="M11.5135 28.5678C10.5092 25.5905 10.5092 22.3666 11.5135 19.3892V13.2144H3.55018C0.149939 19.9882 0.149939 27.9688 3.55018 34.7428L11.5135 28.5678Z" fill="#FBBC04"/>
<path d="M24.9732 9.48855C28.391 9.43569 31.6943 10.7218 34.1696 13.0825L41.0142 6.23815C36.6802 2.16855 30.928 -0.0688538 24.9732 0.0016155C15.9088 0.0016155 7.61952 5.11064 3.5498 13.2146L11.5131 19.3895C13.407 13.7079 18.7188 9.48855 24.9732 9.48855Z" fill="#EA4335"/>
</svg>
