<svg width="30" height="30" viewBox="0 0 30 30" fill="none" xmlns="http://www.w3.org/2000/svg">
<path d="M21.25 5.00006H6.25C4.18144 5.00609 2.50602 6.6815 2.5 8.75006V23.7501C2.5061 25.8186 4.18144 27.494 6.25 27.5001H21.25C21.4222 27.5027 21.5941 27.4859 21.7625 27.4501C22.6565 27.3383 23.4766 26.897 24.0625 26.2125L14.8625 17.0125L15.7375 16.1374C17.112 14.825 19.2754 14.825 20.65 16.1374L25 20.4751V8.75006C24.994 6.6815 23.3186 5.00609 21.25 5.00006Z" fill="#9FEFEF"/>
<path d="M14.8625 17.0126L11.7625 13.9001C10.3855 12.5938 8.227 12.5938 6.85 13.9001L2.5 18.2501V23.7501C2.50609 25.8186 4.18146 27.494 6.25 27.5001H21.25C21.4222 27.5027 21.5941 27.4859 21.7625 27.4501C22.6565 27.3383 23.4767 26.897 24.0625 26.2126L14.8625 17.0126ZM20.5438 13.1483H17.5189C16.8287 13.1484 16.2691 12.5891 16.2689 11.8989C16.2689 11.8987 16.2689 11.8985 16.2689 11.8983V8.87336C16.2689 8.54184 16.4006 8.22392 16.6352 7.98961L22.3603 2.2645C22.5946 2.03008 22.9125 1.89834 23.244 1.89825C23.5755 1.89834 23.8934 2.03008 24.1278 2.2645L27.1527 5.29063C27.6408 5.77849 27.641 6.56966 27.1531 7.05776C27.153 7.05791 27.1528 7.05806 27.1527 7.05821L21.4276 12.7821C21.1932 13.0165 20.8753 13.1482 20.5438 13.1483Z" fill="#1FA4AB"/>
<path d="M24.0623 26.2125C24.6665 25.5345 25.0002 24.658 24.9998 23.7499V20.4749L20.6498 16.1373C19.2752 14.8249 17.1118 14.8249 15.7373 16.1373L14.8623 17.0123L24.0623 26.2123" fill="#E4F7F7"/>
</svg>
