<svg width="211" height="45" fill="none" xmlns="http://www.w3.org/2000/svg">
  <path d="M-46-47h1519v237H-46z"/>
  <path fill-rule="evenodd" clip-rule="evenodd" d="M0 0h21.384v21.384H0V0zm74.372 25.919l-1.255 3.558h-.105a25.261 25.261 0 00-1.221-3.489L65.058 9.07h-6.593v26.965h4.36v-16.64c0-1.046 0-2.232-.034-3.697a24.92 24.92 0 00-.102-1.31 28.093 28.093 0 01-.038-.4h.105a16.33 16.33 0 00.628 2.303l8.093 19.674h3.07l8.023-19.849c.133-.346.267-.958.4-1.57.041-.189.082-.377.123-.557h.105a251.325 251.325 0 00-.21 4.848V35.93h4.64V9H81.28l-6.908 16.92zm17.651-9.314h4.535V35.93h-4.535V16.605zm2.303-8.163c-.768 0-1.396.279-1.919.767-.523.489-.802 1.117-.802 1.884 0 .733.279 1.36.802 1.849.523.488 1.151.732 1.919.732.767 0 1.43-.279 1.918-.732a2.454 2.454 0 00.803-1.849c0-.732-.28-1.36-.803-1.884-.453-.488-1.116-.767-1.918-.767zm18.314 7.988a12.684 12.684 0 00-2.547-.279c-2.058 0-3.942.454-5.511 1.36-1.57.908-2.826 2.163-3.628 3.733-.838 1.605-1.256 3.454-1.256 5.582 0 1.848.418 3.488 1.221 4.988.802 1.465 1.918 2.651 3.418 3.453 1.431.803 3.105 1.221 4.989 1.221 2.163 0 4.011-.453 5.477-1.29l.034-.035v-4.186l-.174.14c-.663.488-1.43.906-2.198 1.15-.802.28-1.535.42-2.162.42-1.814 0-3.245-.524-4.256-1.675-1.047-1.117-1.57-2.652-1.57-4.57 0-1.988.523-3.558 1.605-4.71 1.081-1.15 2.511-1.744 4.255-1.744 1.465 0 2.966.489 4.326 1.466l.174.14v-4.431l-.034-.035-.052-.021c-.58-.24-1.231-.507-2.111-.677zm14.965-.14a4.786 4.786 0 00-3.07 1.082c-.767.628-1.291 1.535-1.744 2.616h-.035v-3.383h-4.535V35.93h4.535v-9.872c0-1.674.349-3.07 1.116-4.081.768-1.047 1.744-1.57 2.93-1.57.28 0 .559.047.869.098.155.026.318.053.492.076.488.14.837.28 1.081.454l.175.14V16.64l-.105-.035c-.314-.21-.942-.314-1.709-.314zm12.349-.104c-3.175 0-5.721.942-7.5 2.79-1.814 1.85-2.686 4.396-2.686 7.605 0 3 .907 5.442 2.651 7.221 1.744 1.745 4.116 2.652 7.081 2.652 3.105 0 5.582-.942 7.361-2.826 1.814-1.884 2.686-4.395 2.686-7.5 0-3.07-.838-5.512-2.547-7.29-1.639-1.78-4.046-2.652-7.046-2.652zm3.628 14.86c-.838 1.082-2.163 1.605-3.803 1.605-1.639 0-2.965-.523-3.907-1.674-.942-1.082-1.395-2.651-1.395-4.64 0-2.058.488-3.628 1.395-4.744.942-1.116 2.233-1.674 3.872-1.674 1.605 0 2.861.523 3.768 1.604.907 1.082 1.395 2.651 1.395 4.71-.07 2.093-.453 3.732-1.325 4.814zm16.081-6.418c-1.43-.593-2.337-1.047-2.756-1.43-.349-.35-.523-.838-.523-1.465 0-.524.209-1.047.732-1.396.524-.349 1.117-.523 1.989-.523.767 0 1.57.14 2.337.349.767.21 1.465.523 2.023.942l.175.14v-4.257l-.105-.034a12.59 12.59 0 00-2.058-.594 13.99 13.99 0 00-2.233-.209c-2.162 0-3.942.523-5.337 1.675-1.395 1.081-2.058 2.546-2.058 4.255 0 .907.14 1.71.453 2.373a5.29 5.29 0 001.396 1.813c.628.489 1.535 1.047 2.791 1.57 1.046.454 1.848.803 2.337 1.082.488.279.802.593 1.046.837.175.279.279.628.279 1.081 0 1.291-.976 1.919-2.965 1.919-.767 0-1.57-.14-2.511-.454a9.713 9.713 0 01-2.547-1.29l-.174-.14v4.43l.104.035c.663.314 1.465.523 2.442.768.977.174 1.849.314 2.616.314 2.338 0 4.256-.524 5.617-1.675 1.395-1.116 2.128-2.546 2.128-4.395 0-1.29-.349-2.442-1.117-3.314-1.011-.837-2.267-1.71-4.081-2.407zm17.163-8.442c-3.175 0-5.721.942-7.5 2.79-1.779 1.85-2.686 4.396-2.686 7.605 0 3 .907 5.442 2.651 7.221 1.744 1.745 4.116 2.652 7.081 2.652 3.105 0 5.582-.942 7.361-2.826 1.814-1.884 2.686-4.395 2.686-7.5 0-3.07-.837-5.512-2.547-7.29-1.639-1.78-4.046-2.652-7.046-2.652zm3.593 14.86c-.837 1.082-2.163 1.605-3.803 1.605-1.674 0-2.965-.523-3.907-1.674-.941-1.082-1.395-2.651-1.395-4.64 0-2.058.488-3.628 1.395-4.744.942-1.116 2.233-1.674 3.873-1.674 1.569 0 2.86.523 3.767 1.604.907 1.082 1.395 2.651 1.395 4.71 0 2.093-.453 3.732-1.325 4.814zm30.244-10.709v-3.732h-4.57v-5.721l-.139.035-4.326 1.29-.105.035v4.36h-6.837v-2.441c0-1.116.279-1.989.768-2.547.488-.558 1.221-.837 2.128-.837.627 0 1.29.14 2.023.454l.174.104V7.395l-.104-.034c-.628-.21-1.466-.35-2.547-.35-1.36 0-2.546.315-3.628.838a6.053 6.053 0 00-2.477 2.477c-.593 1.046-.907 2.232-.907 3.593v2.686h-3.174v3.697h3.174V35.93h4.57V20.337h6.837v9.942c0 4.082 1.919 6.14 5.756 6.14.628 0 1.291-.105 1.919-.21.663-.14 1.151-.314 1.43-.453l.035-.035v-3.733l-.175.14a2.95 2.95 0 01-.941.419c-.349.104-.663.14-.907.14-.907 0-1.535-.21-1.989-.733-.418-.489-.628-1.291-.628-2.477v-9.14h4.64zM45 0H23.616v21.384H45V0zM0 23.616h21.384V45H0V23.616zm45 0H23.616V45H45V23.616z" fill="#000"/>
</svg>
