<svg width="48" height="48" fill="none" xmlns="http://www.w3.org/2000/svg"><path d="M24.5 43C14.248 43 5.923 34.829 6 24.5 6.079 14.171 13.864 6 24.5 6 35.138 6 43 14.325 43 24.5S34.752 43 24.5 43zm5.473-2.852L24.732 26.04l-4.934 14.415c3.623.849 6.09 1.08 10.175-.308zm-12.795-.77L9.315 17.87c-1.08 2.313-1.31 4.24-1.464 6.629.077 6.32 3.622 12.102 9.327 14.877zM41.073 24.5c.077-4.085-1.772-7.323-1.927-7.785.155 3.16-.308 4.779-.848 6.552l-5.395 15.494c6.783-4.086 8.092-10.176 8.247-14.261h-.077zm-17.112-.694-2.62-7.169-1.928-.153c-.77-.54-.309-1.388.231-1.388 3.469.231 5.395.231 8.865 0 .848 0 1.079 1.234.076 1.388l-1.85.153 6.012 17.73 2.852-9.713c.154-4.24-1.003-4.702-2.544-7.785-1.234-2.39.077-4.703 2.467-4.78-1.928-1.85-5.858-4.162-11.023-4.239-5.165-.077-10.637 2.544-13.875 7.477l5.705-.154c.693.309.385 1.31 0 1.388l-2.004.154 6.012 18.037 3.624-10.946z" fill="#21759B"/></svg>